<svg width="109" height="62" viewBox="0 0 109 62" fill="none" xmlns="http://www.w3.org/2000/svg">
<g id="Vector">
<path d="M19.0698 16.6565H9.16446L8.76003 19.5456H17.1156L16.3409 25.0863H7.98504L7.47975 28.6893H17.5537L16.7787 34.2297H0L3.23446 11.116H19.8448L19.0698 16.6565Z" fill="#AB1D22"/>
<path d="M29.7841 21.4835C29.3122 21.279 28.8405 21.2116 28.4025 21.2116C26.1788 21.2116 25.2355 23.2167 25.2355 26.3102C25.2355 28.2813 25.9091 29.029 27.0888 29.029C27.8299 29.029 28.5038 28.6893 28.8069 28.4517L29.7841 21.4835ZM28.3016 31.9182H28.2677C27.2571 33.108 25.4713 33.9574 23.9888 33.9574C20.2152 33.9574 18.6991 31.1705 18.6991 27.4653C18.6991 21.687 21.8999 16.8949 28.8405 16.8949C31.9405 16.8949 34.4674 17.5748 36.3539 18.2544L34.1639 33.8899C33.6247 37.7646 30.8285 40.6877 24.831 40.6877C22.3716 40.6877 20.3165 40.382 18.4971 39.872L20.013 35.5553C22.1694 36.0653 23.2138 36.2349 24.528 36.2349C26.6505 36.2349 27.8638 35.1812 28.0655 33.7198L28.3016 31.9182Z" fill="#AB1D22"/>
<path d="M45.0802 29.6407C45.855 29.6407 46.5291 29.3008 46.8658 29.0631L47.8766 21.4834C47.405 21.2789 46.933 21.2115 46.5291 21.2115C44.1705 21.2115 43.2946 23.4209 43.2946 26.6841C43.2946 28.6551 43.9008 29.6407 45.0802 29.6407ZM46.3603 32.5299H46.293C45.282 33.7197 43.4964 34.5696 42.0141 34.5696C38.2741 34.5696 36.7919 31.3747 36.7919 27.6014C36.7919 21.8572 40.0602 16.8949 46.9669 16.8949C50.0328 16.8949 52.5936 17.5747 54.4464 18.2543L52.223 34.2297H46.7308L46.3603 32.5299Z" fill="#AB1D22"/>
<path d="M60.5107 34.2297H54.4121L56.7707 17.2348H62.2627L62.5996 19.2057C64.1155 17.7101 65.6319 16.8949 67.6535 16.8949C70.9552 16.8949 72.3368 18.9681 71.8649 22.3667L70.2143 34.2297H64.1155L65.598 23.5566C65.7327 22.5371 65.3958 21.8231 64.1494 21.8231C63.4418 21.8231 62.6671 22.1972 62.1616 22.4687L60.5107 34.2297Z" fill="#AB1D22"/>
<path d="M44.7586 47.0102C46.2406 47.0102 46.9147 46.6363 46.9147 45.2769C46.9147 44.3928 46.3083 44.0871 45.1625 44.0871H42.0969L41.6925 47.0102H44.7586ZM40.9175 52.5508L40.412 56.1196H43.8486C45.2639 56.1196 46.3758 55.7458 46.3758 54.0464C46.3758 52.8566 45.4997 52.5508 44.2867 52.5508H40.9175ZM49.5089 49.6617C51.3622 50.3754 53.0131 51.8029 53.0131 54.3863C53.0131 58.7711 49.5089 61.6603 43.8825 61.6603H32.9325L36.1669 38.5464H46.4428C51.0928 38.5464 53.5522 40.416 53.5522 43.7813C53.5522 46.6702 51.7664 48.6422 49.5089 49.5936V49.6617Z" fill="#211E3E"/>
<path d="M59.8206 61.6603H53.7218L56.0804 44.6654H61.5726L61.7071 48.2342H61.7748C62.8529 45.6849 65.2115 44.3255 67.199 44.3255L66.3904 50.1712C64.1332 50.1712 62.2462 50.545 61.3029 50.953L59.8206 61.6603Z" fill="#211E3E"/>
<path d="M100.283 55.8499L99.4761 61.6602H105.08L105.884 55.8499H100.283Z" fill="#211E3E"/>
<path d="M72.6573 54.9979C72.6573 56.5957 73.0279 57.6836 74.2407 57.6836C75.9931 57.6836 77.105 55.848 77.105 51.3269C77.105 49.7298 76.7006 48.6422 75.5212 48.6422C73.7692 48.6422 72.6573 50.4777 72.6573 54.9979ZM66.3234 54.658C66.3234 49.4233 69.0859 44.3255 76.094 44.3255C81.384 44.3255 83.439 47.6558 83.439 51.7007C83.439 56.9015 80.6087 62 73.6345 62C68.3445 62 66.3234 58.6689 66.3234 54.658Z" fill="#211E3E"/>
<path d="M98.0629 49.6275C96.8162 49.1175 94.5926 48.506 93.2112 48.506C92.4698 48.506 91.8637 48.8118 91.8637 49.3898C91.8637 50.9869 98.4335 50.8849 98.4335 55.6094C98.4335 59.7907 94.8621 62 89.8418 62C87.3826 62 84.687 61.6942 82.8676 61.1842L84.4512 56.6638C86.5398 57.3776 88.1909 57.8529 89.5051 57.8529C90.5495 57.8529 91.1223 57.411 91.1223 56.8676C91.1223 55.2356 84.7209 55.542 84.7209 50.5789C84.7209 46.4668 88.2584 44.3255 93.144 44.3255C95.6034 44.3255 97.6587 44.6654 99.4779 45.1747L98.0629 49.6275Z" fill="#211E3E"/>
<path d="M95.4128 20.4466L79.9911 41.0256H70.794L86.5322 20.0163L74.849 0.853294H83.4682L95.4128 20.4466Z" fill="#211E3E"/>
<path d="M109 19.5931L93.5781 40.1723H84.381L100.119 19.163L88.436 0H97.0552L109 19.5931Z" fill="#AB1D22"/>
</g>
</svg>
