<svg width="104" height="59" viewBox="0 0 104 59" fill="none" xmlns="http://www.w3.org/2000/svg">
<g id="social">
<g id="g10">
<path id="path12" d="M18.195 16.0545H8.74403L8.35815 18.787H16.3304L15.5912 24.0272H7.61872L7.1366 27.4348H16.7484L16.0089 32.6748H0L3.08607 10.8145H18.9344L18.195 16.0545Z" fill="white"/>
<path id="path14" d="M28.4176 20.6193C27.9674 20.4259 27.5173 20.3623 27.0994 20.3623C24.9777 20.3623 24.0777 22.2586 24.0777 25.1843C24.0777 27.0486 24.7204 27.7557 25.846 27.7557C26.5531 27.7557 27.1961 27.4345 27.4852 27.2097L28.4176 20.6193ZM27.0031 30.4882H26.9708C26.0066 31.6135 24.3027 32.4169 22.8882 32.4169C19.2877 32.4169 17.8411 29.7811 17.8411 26.2768C17.8411 20.8118 20.8951 16.2796 27.5173 16.2796C30.4751 16.2796 32.8861 16.9226 34.686 17.5654L32.5965 32.353C32.082 36.0176 29.4142 38.7822 23.6918 38.7822C21.3452 38.7822 19.3844 38.4931 17.6484 38.0107L19.0948 33.9281C21.1522 34.4104 22.1488 34.5708 23.4026 34.5708C25.4278 34.5708 26.5854 33.5743 26.7779 32.1921L27.0031 30.4882Z" fill="white"/>
<path id="path16" d="M43.0107 28.3344C43.7499 28.3344 44.3931 28.013 44.7143 27.7882L45.6788 20.6195C45.2287 20.4261 44.7785 20.3624 44.3931 20.3624C42.1427 20.3624 41.307 22.4519 41.307 25.5382C41.307 27.4023 41.8853 28.3344 43.0107 28.3344ZM44.232 31.0669H44.1678C43.2031 32.1923 41.4995 32.9961 40.0852 32.9961C36.5168 32.9961 35.1025 29.9744 35.1025 26.4058C35.1025 20.9731 38.2209 16.2798 44.8108 16.2798C47.736 16.2798 50.1793 16.9228 51.9472 17.5655L49.8258 32.6746H44.5855L44.232 31.0669Z" fill="white"/>
<path id="path18" d="M57.7339 32.6748H51.915L54.1654 16.6015H59.4054L59.7269 18.4655C61.1733 17.051 62.6201 16.28 64.549 16.28C67.6992 16.28 69.0175 18.2407 68.5672 21.4551L66.9923 32.6748H61.1733L62.5877 22.5804C62.7163 21.6162 62.3948 20.9409 61.2056 20.9409C60.5305 20.9409 59.7913 21.2947 59.309 21.5516L57.7339 32.6748Z" fill="white"/>
<path id="path20" d="M42.7055 44.762C44.1195 44.762 44.7627 44.4084 44.7627 43.1227C44.7627 42.2865 44.1841 41.9974 43.0909 41.9974H40.1659L39.78 44.762H42.7055ZM39.0406 50.0022L38.5582 53.3774H41.8373C43.1876 53.3774 44.2485 53.0239 44.2485 51.4167C44.2485 50.2914 43.4126 50.0022 42.2552 50.0022H39.0406ZM47.2379 47.2697C49.0062 47.9447 50.5813 49.2948 50.5813 51.7382C50.5813 55.8852 47.2379 58.6177 41.8696 58.6177H31.4219L34.5079 36.7571H44.3124C48.7491 36.7571 51.0957 38.5254 51.0957 41.7082C51.0957 44.4405 49.3918 46.3055 47.2379 47.2053V47.2697Z" fill="white"/>
<path id="path22" d="M57.0769 58.6177H51.2578L53.5082 42.5443H58.7484L58.8768 45.9196H58.9414C59.97 43.5086 62.2204 42.2229 64.1168 42.2229L63.3452 47.7516C61.1916 47.7516 59.3912 48.1051 58.4911 48.491L57.0769 58.6177Z" fill="white"/>
<path id="path24" d="M95.6815 53.1224L94.9121 58.6177H100.259L101.026 53.1224H95.6815Z" fill="white"/>
<path id="path26" d="M69.3236 52.3166C69.3236 53.8277 69.6772 54.8566 70.8344 54.8566C72.5064 54.8566 73.5673 53.1206 73.5673 48.8446C73.5673 47.3341 73.1815 46.3055 72.0561 46.3055C70.3846 46.3055 69.3236 48.0415 69.3236 52.3166ZM63.2803 51.9951C63.2803 47.0442 65.9161 42.2229 72.6027 42.2229C77.65 42.2229 79.6107 45.3727 79.6107 49.1982C79.6107 54.1169 76.9103 58.939 70.256 58.939C65.2087 58.939 63.2803 55.7885 63.2803 51.9951Z" fill="white"/>
<path id="path28" d="M93.5636 47.2374C92.3742 46.7551 90.2526 46.1767 88.9345 46.1767C88.2272 46.1767 87.6488 46.4659 87.6488 47.0126C87.6488 48.5231 93.9172 48.4266 93.9172 52.8949C93.9172 56.8494 90.5097 58.939 85.7197 58.939C83.3733 58.939 80.8014 58.6498 79.0654 58.1674L80.5764 53.8921C82.5692 54.5672 84.1446 55.0168 85.3984 55.0168C86.395 55.0168 86.9415 54.5988 86.9415 54.0848C86.9415 52.5413 80.8337 52.8312 80.8337 48.1372C80.8337 44.248 84.209 42.2229 88.8704 42.2229C91.217 42.2229 93.178 42.5444 94.9138 43.026L93.5636 47.2374Z" fill="white"/>
<path id="path30" d="M91.0352 19.6395L76.3211 39.1025H67.5459L82.562 19.2325L71.4149 1.10868H79.6387L91.0352 19.6395Z" fill="white"/>
<path id="path32" d="M104 18.8317L89.2859 38.2949H80.5107L95.5271 18.4249L84.3797 0.301067H92.6035L104 18.8317Z" fill="white"/>
</g>
</g>
</svg>
