<svg width="50" height="50" viewBox="0 0 50 50" fill="none" xmlns="http://www.w3.org/2000/svg">
<g id="Speedometer">
<path id="Vector" opacity="0.7" d="M22.9617 30.4488L41.5448 11.8657C41.6168 11.7937 41.7022 11.7367 41.7962 11.6977C41.8902 11.6588 41.9909 11.6388 42.0926 11.6388C42.1944 11.6388 42.2951 11.6588 42.3891 11.6977C42.4831 11.7367 42.5685 11.7937 42.6405 11.8657C42.7124 11.9376 42.7695 12.023 42.8084 12.117C42.8473 12.211 42.8674 12.3117 42.8674 12.4135C42.8674 12.5152 42.8473 12.616 42.8084 12.71C42.7695 12.8039 42.7124 12.8894 42.6405 12.9613L24.0573 31.5444C23.912 31.6897 23.715 31.7713 23.5095 31.7713C23.304 31.7713 23.107 31.6897 22.9617 31.5444C22.8164 31.3991 22.7348 31.2021 22.7348 30.9966C22.7348 30.7911 22.8164 30.5941 22.9617 30.4488ZM25.0581 16.285C26.4875 16.2834 27.9076 16.5148 29.2625 16.9702C29.3611 17.015 29.4679 17.0387 29.5761 17.0396C29.6844 17.0406 29.7916 17.0189 29.8909 16.9758C29.9903 16.9328 30.0794 16.8694 30.1527 16.7897C30.226 16.7101 30.2818 16.616 30.3165 16.5134C30.3512 16.4109 30.364 16.3022 30.3541 16.1944C30.3442 16.0866 30.3118 15.9821 30.2589 15.8876C30.2061 15.7932 30.1341 15.7108 30.0475 15.6459C29.9609 15.5809 29.8617 15.5349 29.7562 15.5107C27.5436 14.7651 25.1853 14.5568 22.8763 14.903C20.5673 15.2493 18.3738 16.1402 16.4773 17.502C14.5807 18.8639 13.0356 20.6575 11.9695 22.7348C10.9034 24.812 10.3471 27.1132 10.3465 29.448C10.3471 29.9938 10.3768 30.5392 10.4355 31.0818C10.4566 31.2721 10.5473 31.4478 10.6903 31.575C10.8333 31.7023 11.0184 31.7721 11.2098 31.7709H11.2969C11.3981 31.7598 11.4962 31.7289 11.5854 31.6799C11.6746 31.6309 11.7533 31.5647 11.817 31.4853C11.8806 31.4058 11.928 31.3145 11.9563 31.2167C11.9847 31.1189 11.9935 31.0165 11.9822 30.9153C11.7757 29.0749 11.96 27.2116 12.5228 25.4472C13.0857 23.6829 14.0146 22.0572 15.2487 20.6763C16.4829 19.2955 17.9945 18.1906 19.6848 17.4339C21.3752 16.6772 23.2061 16.2857 25.0581 16.285ZM43.6741 19.928C43.6315 19.8318 43.5696 19.7452 43.4923 19.6737C43.415 19.6022 43.3239 19.5472 43.2246 19.512C43.1253 19.4769 43.0199 19.4624 42.9149 19.4694C42.8098 19.4764 42.7072 19.5048 42.6135 19.5528C42.5198 19.6007 42.4368 19.6674 42.3697 19.7485C42.3026 19.8297 42.2527 19.9237 42.2232 20.0247C42.1936 20.1258 42.185 20.2319 42.1978 20.3364C42.2107 20.4409 42.2447 20.5417 42.2978 20.6326C43.4916 22.9751 44.1974 25.5356 44.3724 28.1589C44.5474 30.7822 44.188 33.4137 43.316 35.8941C43.2635 36.0468 43.1646 36.1793 43.033 36.273C42.9015 36.3668 42.7439 36.417 42.5824 36.4167H7.53188C7.36957 36.4148 7.21179 36.3629 7.08013 36.268C6.94846 36.173 6.84933 36.0397 6.7963 35.8863C5.51075 32.2339 5.34952 28.28 6.33341 24.535C7.31731 20.7901 9.40116 17.426 12.3159 14.8772C15.2307 12.3283 18.8426 10.7116 22.6853 10.2359C26.528 9.76016 30.4251 10.4472 33.8735 12.2083C33.9643 12.2582 34.0642 12.2893 34.1673 12.2999C34.2703 12.3104 34.3745 12.3002 34.4735 12.2698C34.5726 12.2393 34.6645 12.1893 34.7439 12.1228C34.8232 12.0562 34.8884 11.9743 34.9356 11.8821C34.9828 11.7898 35.0109 11.689 35.0184 11.5857C35.0259 11.4823 35.0126 11.3785 34.9793 11.2804C34.946 11.1823 34.8933 11.0919 34.8244 11.0146C34.7554 10.9372 34.6717 10.8745 34.5781 10.83C31.6915 9.34727 28.4968 8.56352 25.2517 8.54199H25.0581C21.7154 8.54374 18.4218 9.34656 15.4532 10.8832C12.4846 12.4199 9.92751 14.6456 7.99616 17.3739C6.06481 20.1022 4.81545 23.2536 4.35274 26.5642C3.89003 29.8747 4.22746 33.2479 5.33675 36.4012C5.49629 36.8567 5.79298 37.2516 6.18604 37.5317C6.5791 37.8118 7.04925 37.9632 7.53188 37.9653H42.5824C43.0636 37.9664 43.5333 37.8179 43.9265 37.5405C44.3198 37.2631 44.6171 36.8704 44.7775 36.4167C45.7192 33.738 46.1069 30.896 45.9172 28.063C45.7276 25.23 44.9645 22.465 43.6741 19.9358V19.928Z" fill="#474747"/>
</g>
</svg>
