<svg width="51" height="50" viewBox="0 0 51 50" fill="none" xmlns="http://www.w3.org/2000/svg">
<g id="Recycle">
<path id="Vector" opacity="0.7" d="M18.7175 40.2884C18.7175 40.4937 18.636 40.6907 18.4908 40.8359C18.3456 40.9811 18.1486 41.0627 17.9432 41.0627H8.65168C7.97226 41.0623 7.30491 40.8832 6.71665 40.5432C6.12839 40.2033 5.63995 39.7145 5.3004 39.126C4.96085 38.5376 4.78214 37.8701 4.78223 37.1907C4.78232 36.5112 4.9612 35.8438 5.30091 35.2554L12.8774 22.1659L8.34196 23.3796C8.24231 23.411 8.13734 23.4218 8.03338 23.4115C7.92943 23.4012 7.82863 23.37 7.73705 23.3197C7.64548 23.2695 7.56503 23.2012 7.50054 23.119C7.43604 23.0368 7.38885 22.9424 7.3618 22.8415C7.33474 22.7406 7.32838 22.6353 7.34311 22.5319C7.35783 22.4285 7.39333 22.3291 7.44747 22.2397C7.5016 22.1504 7.57326 22.0729 7.65812 22.012C7.74298 21.9511 7.8393 21.908 7.94126 21.8852L14.2847 20.1876C14.3831 20.1613 14.4857 20.1546 14.5866 20.1681C14.6876 20.1815 14.7849 20.2146 14.873 20.2657C14.9611 20.3168 15.0383 20.3847 15.1001 20.4656C15.1619 20.5466 15.2071 20.6389 15.2332 20.7374L16.9347 27.0808C16.988 27.2789 16.9604 27.4902 16.8581 27.668C16.7557 27.8458 16.5869 27.9758 16.3888 28.0293C16.3258 28.047 16.2607 28.0561 16.1953 28.0564C16.024 28.0558 15.8578 27.9985 15.7226 27.8935C15.5874 27.7884 15.4909 27.6415 15.4481 27.4757L14.2286 22.9325L6.64819 36.0297C6.44465 36.3822 6.33733 36.7821 6.33697 37.1891C6.33661 37.5962 6.44322 37.9962 6.64613 38.3491C6.84904 38.702 7.14112 38.9953 7.4931 39.1998C7.84509 39.4043 8.24462 39.5126 8.65168 39.5141H17.9432C18.1486 39.5141 18.3456 39.5956 18.4908 39.7408C18.636 39.8861 18.7175 40.083 18.7175 40.2884ZM46.0657 35.2554L41.5864 27.5125C41.4837 27.3346 41.3146 27.2047 41.1162 27.1516C40.9178 27.0984 40.7064 27.1262 40.5285 27.2289C40.3506 27.3315 40.2208 27.5007 40.1676 27.6991C40.1145 27.8975 40.1423 28.1089 40.2449 28.2867L44.7243 36.0297C44.9278 36.3822 45.0351 36.7821 45.0355 37.1891C45.0358 37.5962 44.9292 37.9962 44.7263 38.3491C44.5234 38.702 44.2313 38.9953 43.8793 39.1998C43.5274 39.4043 43.1278 39.5126 42.7208 39.5141H27.5562L30.8798 36.1904C31.0251 36.0451 31.1067 35.848 31.1067 35.6426C31.1067 35.4371 31.0251 35.24 30.8798 35.0948C30.7345 34.9495 30.5375 34.8678 30.332 34.8678C30.1265 34.8678 29.9295 34.9495 29.7842 35.0948L25.1384 39.7405C25.0664 39.8125 25.0093 39.8979 24.9703 39.9918C24.9314 40.0858 24.9113 40.1866 24.9113 40.2884C24.9113 40.3901 24.9314 40.4909 24.9703 40.5849C25.0093 40.6789 25.0664 40.7643 25.1384 40.8362L29.7842 45.482C29.9295 45.6273 30.1265 45.7089 30.332 45.7089C30.5375 45.7089 30.7345 45.6273 30.8798 45.482C31.0251 45.3367 31.1067 45.1396 31.1067 44.9341C31.1067 44.7287 31.0251 44.5316 30.8798 44.3863L27.5562 41.0627H42.7208C43.4002 41.0623 44.0675 40.8832 44.6558 40.5432C45.2441 40.2033 45.7325 39.7145 46.072 39.126C46.4116 38.5376 46.5903 37.8701 46.5902 37.1907C46.5901 36.5112 46.4112 35.8438 46.0715 35.2554H46.0657ZM27.6955 6.60642L35.272 19.6959L30.7366 18.4803C30.5382 18.4271 30.3267 18.455 30.1489 18.5577C29.971 18.6605 29.8412 18.8297 29.7881 19.0281C29.7349 19.2265 29.7628 19.4379 29.8655 19.6158C29.9683 19.7937 30.1375 19.9235 30.3359 19.9766L36.6812 21.6762C36.7442 21.6941 36.8094 21.7033 36.8748 21.7033C37.046 21.7027 37.2123 21.6454 37.3475 21.5404C37.4827 21.4353 37.5792 21.2884 37.622 21.1226L39.3235 14.7753C39.3549 14.6756 39.3657 14.5706 39.3554 14.4667C39.3451 14.3627 39.3139 14.2619 39.2636 14.1704C39.2134 14.0788 39.1451 13.9983 39.0629 13.9338C38.9807 13.8693 38.8863 13.8222 38.7854 13.7951C38.6845 13.768 38.5792 13.7617 38.4758 13.7764C38.3724 13.7911 38.273 13.8266 38.1836 13.8808C38.0943 13.9349 38.0168 14.0066 37.9559 14.0914C37.895 14.1763 37.8519 14.2726 37.8291 14.3746L36.6096 18.9178L29.037 5.83213C28.6969 5.24454 28.2083 4.75671 27.6202 4.41757C27.0321 4.07843 26.3651 3.8999 25.6862 3.8999C25.0073 3.8999 24.3404 4.07843 23.7522 4.41757C23.1641 4.75671 22.6755 5.24454 22.3355 5.83213L17.8523 13.5751C17.7496 13.753 17.7218 13.9644 17.775 14.1628C17.8281 14.3612 17.958 14.5303 18.1359 14.633C18.3137 14.7357 18.5251 14.7635 18.7235 14.7103C18.9219 14.6571 19.0911 14.5273 19.1937 14.3494L23.675 6.60642C23.8791 6.25396 24.1722 5.96135 24.525 5.75793C24.8779 5.5545 25.278 5.44742 25.6853 5.44742C26.0925 5.44742 26.4926 5.5545 26.8455 5.75793C27.1983 5.96135 27.4915 6.25396 27.6955 6.60642Z" fill="#474747"/>
</g>
</svg>
