<svg width="50" height="50" viewBox="0 0 50 50" fill="none" xmlns="http://www.w3.org/2000/svg">
<g id="Barricade">
<path id="Vector" opacity="0.7" d="M43.3983 13.1877H6.23207C5.616 13.1877 5.02517 13.4325 4.58954 13.8681C4.15391 14.3037 3.90918 14.8946 3.90918 15.5106V29.448C3.90918 30.0641 4.15391 30.6549 4.58954 31.0905C5.02517 31.5261 5.616 31.7709 6.23207 31.7709H11.6522V38.7396C11.6522 38.9449 11.7337 39.1419 11.8789 39.2871C12.0241 39.4323 12.2211 39.5139 12.4265 39.5139C12.6318 39.5139 12.8288 39.4323 12.974 39.2871C13.1192 39.1419 13.2007 38.9449 13.2007 38.7396V31.7709H36.4297V38.7396C36.4297 38.9449 36.5112 39.1419 36.6565 39.2871C36.8017 39.4323 36.9986 39.5139 37.204 39.5139C37.4093 39.5139 37.6063 39.4323 37.7515 39.2871C37.8967 39.1419 37.9783 38.9449 37.9783 38.7396V31.7709H43.3983C44.0144 31.7709 44.6053 31.5261 45.0409 31.0905C45.4765 30.6549 45.7212 30.0641 45.7212 29.448V15.5106C45.7212 14.8946 45.4765 14.3037 45.0409 13.8681C44.6053 13.4325 44.0144 13.1877 43.3983 13.1877ZM44.1726 15.5106V26.8038L32.1052 14.7363H43.3983C43.6037 14.7363 43.8007 14.8179 43.9459 14.9631C44.0911 15.1083 44.1726 15.3053 44.1726 15.5106ZM6.23207 14.7363H15.9766L31.4626 30.2223H19.7165L5.45777 15.9636V15.5106C5.45777 15.3053 5.53935 15.1083 5.68456 14.9631C5.82977 14.8179 6.02672 14.7363 6.23207 14.7363ZM5.45777 29.448V18.1549L17.5252 30.2223H6.23207C6.02672 30.2223 5.82977 30.1407 5.68456 29.9955C5.53935 29.8503 5.45777 29.6533 5.45777 29.448ZM43.3983 30.2223H33.6538L18.1679 14.7363H29.914L44.1726 28.995V29.448C44.1726 29.6533 44.0911 29.8503 43.9459 29.9955C43.8007 30.1407 43.6037 30.2223 43.3983 30.2223Z" fill="#474747"/>
</g>
</svg>
