<svg width="33" height="33" viewBox="0 0 33 33" fill="none" xmlns="http://www.w3.org/2000/svg">
<g id="Flame">
<path id="Vector" d="M21.7847 7.56389C20.2465 5.94138 18.5148 4.51402 16.6284 3.31389C16.5118 3.24381 16.3783 3.20679 16.2422 3.20679C16.1061 3.20679 15.9726 3.24381 15.8559 3.31389C13.9696 4.51402 12.2379 5.94138 10.6997 7.56389C7.29219 11.1414 5.49219 15.0814 5.49219 18.9564C5.49219 21.8075 6.62477 24.5418 8.64079 26.5578C10.6568 28.5738 13.3911 29.7064 16.2422 29.7064C19.0933 29.7064 21.8276 28.5738 23.8436 26.5578C25.8596 24.5418 26.9922 21.8075 26.9922 18.9564C26.9922 15.0814 25.1922 11.1414 21.7847 7.56389ZM11.9922 23.9564C11.9922 20.2314 15.1309 17.6551 16.2422 16.8589C17.3559 17.6526 20.4922 20.2176 20.4922 23.9564C20.4921 25.0462 20.074 26.0945 19.324 26.8852C18.574 27.6759 17.5492 28.1488 16.4609 28.2064C16.3872 28.2064 16.3159 28.2064 16.2422 28.2064C16.1684 28.2064 16.0972 28.2064 16.0234 28.2064C14.9351 28.1488 13.9104 27.6759 13.1604 26.8852C12.4104 26.0945 11.9923 25.0462 11.9922 23.9564ZM21.2947 26.6989C21.7536 25.8577 21.9935 24.9146 21.9922 23.9564C21.9922 18.5939 16.8472 15.4451 16.6284 15.3139C16.5118 15.2438 16.3783 15.2068 16.2422 15.2068C16.1061 15.2068 15.9726 15.2438 15.8559 15.3139C15.6372 15.4451 10.4922 18.5939 10.4922 23.9564C10.4909 24.9146 10.7308 25.8577 11.1897 26.6989C9.9016 25.8589 8.84324 24.7111 8.11034 23.3593C7.37744 22.0074 6.99314 20.4941 6.99219 18.9564C6.99219 11.4776 14.4447 6.04889 16.2422 4.84889C18.0409 6.04889 25.4922 11.4739 25.4922 18.9564C25.4912 20.4941 25.1069 22.0074 24.374 23.3593C23.6411 24.7111 22.5828 25.8589 21.2947 26.6989Z" fill="#211E3E"/>
</g>
</svg>
