<svg width="33" height="33" viewBox="0 0 33 33" fill="none" xmlns="http://www.w3.org/2000/svg">
<g id="Star">
<path id="Vector" d="M29.7032 13.19C29.596 12.8512 29.3895 12.5524 29.1105 12.3324C28.8314 12.1124 28.4926 11.9813 28.1382 11.9563L20.6069 11.3475L17.7044 4.32252C17.569 3.99324 17.3388 3.71163 17.043 3.51346C16.7472 3.31528 16.3992 3.20947 16.0432 3.20947C15.6871 3.20947 15.3391 3.31528 15.0433 3.51346C14.7476 3.71163 14.5173 3.99324 14.3819 4.32252L11.4794 11.345L3.94817 11.9563C3.59339 11.9815 3.25441 12.1129 2.97531 12.3334C2.6962 12.5539 2.48988 12.8532 2.38317 13.1925C2.27194 13.5309 2.26339 13.8947 2.3586 14.2379C2.45381 14.5812 2.64852 14.8885 2.91817 15.1213L8.66817 20.0725L6.91817 27.4788C6.83606 27.8254 6.85862 28.1885 6.983 28.5223C7.10739 28.8561 7.328 29.1454 7.61692 29.3538C7.90227 29.5652 8.24482 29.6854 8.5997 29.6988C8.95457 29.7122 9.30521 29.6181 9.60567 29.4288L16.0432 25.4713L22.4907 29.435C22.7911 29.6243 23.1418 29.7185 23.4966 29.7051C23.8515 29.6917 24.1941 29.5714 24.4794 29.36C24.7683 29.1517 24.989 28.8623 25.1133 28.5286C25.2377 28.1948 25.2603 27.8316 25.1782 27.485L23.4282 20.0788L29.1682 15.1213C29.4383 14.8883 29.6333 14.5805 29.7286 14.2368C29.8238 13.893 29.8149 13.5288 29.7032 13.19ZM28.1857 13.9863L22.0994 19.2363C21.9956 19.3259 21.9183 19.4422 21.876 19.5727C21.8337 19.7032 21.8279 19.8428 21.8594 19.9763L23.7194 27.825C23.7357 27.8843 23.733 27.9471 23.7117 28.0047C23.6904 28.0624 23.6516 28.1119 23.6007 28.1463C23.5545 28.1819 23.4984 28.2023 23.4402 28.2045C23.3819 28.2068 23.3244 28.1908 23.2757 28.1588L16.4357 23.9563C16.3176 23.8838 16.1817 23.8454 16.0432 23.8454C15.9046 23.8454 15.7688 23.8838 15.6507 23.9563L8.81067 28.1575C8.76194 28.1895 8.70443 28.2055 8.64617 28.2033C8.58791 28.2011 8.5318 28.1807 8.48567 28.145C8.43364 28.1115 8.39354 28.0624 8.3711 28.0047C8.34865 27.947 8.345 27.8837 8.36067 27.8238L10.2207 19.975C10.2522 19.8415 10.2464 19.7019 10.2041 19.5715C10.1618 19.441 10.0845 19.3246 9.98067 19.235L3.89442 13.985C3.84667 13.9461 3.81222 13.8933 3.79587 13.834C3.77952 13.7746 3.78207 13.7116 3.80317 13.6538C3.81948 13.5967 3.85317 13.5462 3.89955 13.5093C3.94593 13.4723 4.00269 13.4507 4.06192 13.4475L12.0519 12.8025C12.1896 12.7913 12.3215 12.7424 12.4331 12.661C12.5447 12.5796 12.6317 12.4689 12.6844 12.3413L15.7632 4.89127C15.7846 4.83612 15.8223 4.78874 15.8711 4.75534C15.9199 4.72193 15.9777 4.70406 16.0369 4.70406C16.0961 4.70406 16.1539 4.72193 16.2027 4.75534C16.2516 4.78874 16.2892 4.83612 16.3107 4.89127L19.3894 12.3413C19.4422 12.4689 19.5291 12.5796 19.6407 12.661C19.7523 12.7424 19.8842 12.7913 20.0219 12.8025L28.0119 13.4475C28.0712 13.4507 28.1279 13.4723 28.1743 13.5093C28.2207 13.5462 28.2544 13.5967 28.2707 13.6538C28.2928 13.7112 28.2965 13.774 28.2812 13.8336C28.266 13.8932 28.2326 13.9465 28.1857 13.9863Z" fill="#211E3E"/>
</g>
</svg>
