<svg width="33" height="33" viewBox="0 0 33 33" fill="none" xmlns="http://www.w3.org/2000/svg">
<g id="Lightning">
<path id="Vector" d="M27.1727 15.7851C27.1446 15.665 27.0874 15.5538 27.006 15.4611C26.9247 15.3684 26.8218 15.2972 26.7064 15.2538L19.3027 12.4776L21.1777 3.10259C21.2097 2.94258 21.1886 2.7765 21.1177 2.62955C21.0467 2.4826 20.9298 2.36279 20.7846 2.28829C20.6394 2.2138 20.4739 2.18868 20.3132 2.21675C20.1525 2.24482 20.0052 2.32455 19.8939 2.44384L5.89392 17.4438C5.80984 17.534 5.74927 17.6435 5.71759 17.7626C5.6859 17.8817 5.68406 18.0068 5.71224 18.1268C5.74042 18.2468 5.79774 18.3581 5.87914 18.4506C5.96054 18.5432 6.0635 18.6143 6.17892 18.6576L13.5827 21.4338L11.7077 30.8088C11.6755 30.9689 11.6964 31.1351 11.7672 31.2822C11.8381 31.4293 11.955 31.5492 12.1002 31.6238C12.2063 31.6778 12.3236 31.7061 12.4427 31.7063C12.5456 31.7063 12.6475 31.6851 12.7419 31.6441C12.8363 31.603 12.9212 31.5429 12.9914 31.4676L26.9914 16.4676C27.0753 16.3775 27.1358 16.268 27.1674 16.149C27.199 16.03 27.2008 15.905 27.1727 15.7851ZM13.6927 28.5138L15.1739 21.1038C15.2091 20.9293 15.1809 20.7479 15.0946 20.5922C15.0083 20.4365 14.8693 20.3165 14.7027 20.2538L7.75267 17.6476L19.1852 5.39759L17.7077 12.8088C17.6725 12.9834 17.7006 13.1648 17.787 13.3205C17.8733 13.4762 18.0122 13.5962 18.1789 13.6588L25.1289 16.2651L13.6927 28.5138Z" fill="#211E3E"/>
</g>
</svg>
