<svg width="33" height="33" viewBox="0 0 33 33" fill="none" xmlns="http://www.w3.org/2000/svg">
<g id="Medal">
<path id="Vector" d="M27.5928 12.9563C27.5941 11.1397 27.135 9.35234 26.2584 7.76119C25.3818 6.17003 24.1163 4.82698 22.58 3.85745C21.0437 2.88792 19.2867 2.32353 17.4732 2.21699C15.6597 2.11045 13.8488 2.46524 12.2095 3.24821C10.5703 4.03119 9.15616 5.21682 8.09928 6.69439C7.0424 8.17195 6.3772 9.89326 6.16581 11.6976C5.95441 13.5019 6.20372 15.3303 6.89044 17.0122C7.57716 18.694 8.6789 20.1744 10.0928 21.3151V30.9563C10.0929 31.0841 10.1257 31.2098 10.1881 31.3214C10.2504 31.4329 10.3402 31.5267 10.449 31.5938C10.5671 31.6676 10.7036 31.7066 10.8428 31.7063C10.959 31.7064 11.0737 31.6794 11.1778 31.6276L16.8428 28.7951L22.509 31.6276C22.6233 31.6844 22.7503 31.7111 22.8778 31.7051C23.0053 31.6992 23.1292 31.6608 23.2377 31.5935C23.3462 31.5263 23.4358 31.4325 23.4979 31.321C23.5601 31.2095 23.5927 31.084 23.5928 30.9563V21.3151C24.8415 20.3091 25.8491 19.0361 26.5413 17.5896C27.2335 16.1431 27.5928 14.5599 27.5928 12.9563ZM7.59277 12.9563C7.59277 11.1269 8.13528 9.33847 9.15168 7.81731C10.1681 6.29616 11.6127 5.11056 13.303 4.41045C14.9932 3.71034 16.853 3.52716 18.6474 3.88407C20.4417 4.24099 22.0899 5.12196 23.3835 6.4156C24.6771 7.70923 25.5581 9.35743 25.915 11.1518C26.2719 12.9461 26.0888 14.8059 25.3887 16.4962C24.6885 18.1864 23.503 19.631 21.9818 20.6474C20.4606 21.6638 18.6723 22.2063 16.8428 22.2063C14.3904 22.2034 12.0394 21.2279 10.3053 19.4938C8.57126 17.7597 7.59575 15.4087 7.59277 12.9563ZM22.0928 29.7426L17.1765 27.2851C17.0725 27.2332 16.9578 27.2061 16.8415 27.2061C16.7252 27.2061 16.6106 27.2332 16.5065 27.2851L11.5928 29.7426V22.3313C13.196 23.232 15.0039 23.7051 16.8428 23.7051C18.6816 23.7051 20.4896 23.232 22.0928 22.3313V29.7426ZM16.8428 19.7063C18.1778 19.7063 19.4828 19.3105 20.5929 18.5688C21.7029 17.8271 22.5681 16.7729 23.079 15.5394C23.5899 14.306 23.7235 12.9488 23.4631 11.6395C23.2026 10.3301 22.5597 9.12737 21.6157 8.18337C20.6717 7.23936 19.469 6.59649 18.1596 6.33604C16.8503 6.07559 15.4931 6.20926 14.2597 6.72015C13.0263 7.23104 11.9721 8.09621 11.2304 9.20624C10.4887 10.3163 10.0928 11.6213 10.0928 12.9563C10.0948 14.7459 10.8066 16.4617 12.072 17.7271C13.3374 18.9926 15.0532 19.7044 16.8428 19.7063ZM16.8428 7.70634C17.8811 7.70634 18.8962 8.01424 19.7595 8.59112C20.6229 9.168 21.2958 9.98794 21.6931 10.9472C22.0905 11.9066 22.1945 12.9622 21.9919 13.9806C21.7893 14.999 21.2893 15.9344 20.5551 16.6686C19.8209 17.4029 18.8854 17.9029 17.867 18.1055C16.8486 18.308 15.793 18.2041 14.8337 17.8067C13.8744 17.4093 13.0544 16.7364 12.4776 15.8731C11.9007 15.0097 11.5928 13.9947 11.5928 12.9563C11.5928 11.5639 12.1459 10.2286 13.1305 9.24403C14.115 8.25946 15.4504 7.70634 16.8428 7.70634Z" fill="#211E3E"/>
</g>
</svg>
