<svg width="33" height="33" viewBox="0 0 33 33" fill="none" xmlns="http://www.w3.org/2000/svg">
<g id="Record">
<path id="Vector" d="M16.6426 4.2063C14.1209 4.2063 11.6558 4.95407 9.55906 6.35506C7.46234 7.75605 5.82814 9.74733 4.86312 12.0771C3.8981 14.4068 3.64561 16.9704 4.13757 19.4437C4.62953 21.917 5.84385 24.1888 7.62697 25.9719C9.41009 27.755 11.6819 28.9693 14.1552 29.4613C16.6284 29.9533 19.192 29.7008 21.5218 28.7358C23.8516 27.7707 25.8428 26.1365 27.2438 24.0398C28.6448 21.9431 29.3926 19.478 29.3926 16.9563C29.3886 13.576 28.044 10.3353 25.6538 7.94507C23.2636 5.55484 20.0229 4.21027 16.6426 4.2063ZM16.6426 28.2063C14.4175 28.2063 12.2425 27.5465 10.3924 26.3103C8.54237 25.0742 7.10042 23.3172 6.24894 21.2615C5.39745 19.2058 5.17467 16.9438 5.60875 14.7615C6.04283 12.5792 7.11429 10.5747 8.68763 9.00135C10.261 7.42801 12.2655 6.35655 14.4478 5.92246C16.6301 5.48838 18.8921 5.71117 20.9478 6.56265C23.0034 7.41414 24.7605 8.85608 25.9966 10.7061C27.2328 12.5562 27.8926 14.7313 27.8926 16.9563C27.8893 19.939 26.7029 22.7985 24.5939 24.9076C22.4848 27.0167 19.6253 28.203 16.6426 28.2063ZM16.6426 8.2063C14.912 8.2063 13.2203 8.71948 11.7813 9.68094C10.3424 10.6424 9.2209 12.009 8.55864 13.6078C7.89637 15.2067 7.72309 16.966 8.06071 18.6633C8.39833 20.3607 9.23169 21.9198 10.4554 23.1435C11.6791 24.3672 13.2382 25.2006 14.9355 25.5382C16.6329 25.8758 18.3922 25.7025 19.9911 25.0402C21.5899 24.378 22.9565 23.2565 23.9179 21.8175C24.8794 20.3786 25.3926 18.6869 25.3926 16.9563C25.3899 14.6365 24.4672 12.4124 22.8268 10.772C21.1865 9.13167 18.9624 8.20895 16.6426 8.2063ZM16.6426 24.2063C15.2087 24.2063 13.807 23.7811 12.6147 22.9845C11.4224 22.1878 10.4932 21.0555 9.94446 19.7308C9.39572 18.406 9.25215 16.9483 9.53189 15.5419C9.81163 14.1355 10.5021 12.8437 11.5161 11.8298C12.53 10.8158 13.8218 10.1253 15.2282 9.84561C16.6345 9.56586 18.0923 9.70944 19.417 10.2582C20.7418 10.8069 21.8741 11.7362 22.6707 12.9284C23.4674 14.1207 23.8926 15.5224 23.8926 16.9563C23.8903 18.8784 23.1257 20.7211 21.7666 22.0803C20.4074 23.4394 18.5647 24.204 16.6426 24.2063Z" fill="black"/>
</g>
</svg>
