<svg width="185" height="51" viewBox="0 0 185 51" fill="none" xmlns="http://www.w3.org/2000/svg">
<g id="Vector">
<path d="M13.229 22.2647V8.44245C13.229 0.997425 5.81369 0.404195 5.81369 0.404195H0.711914V9.00602C0.711914 9.00602 5.04249 9.00602 5.01283 9.00602V33.0021C5.36876 28.0783 8.69085 23.8961 13.229 22.2647Z" fill="#E0255C"/>
<path d="M4.98372 33.8326V49.7015H5.01338L5.01283 33.0021C5.01283 33.2988 4.98372 33.5657 4.98372 33.8326Z" fill="#3C90CE"/>
<path d="M18.3604 21.5232H17.5299C16.0172 21.5232 14.5638 21.7901 13.229 22.2647L13.229 49.6719H13.1993V34.0996C13.1993 31.4004 15.0087 29.2055 17.6485 29.2055H17.9748C20.6147 29.2055 22.8096 31.4301 22.8096 34.1293V49.6719H30.9072V33.803C30.9072 27.0699 25.2715 21.5232 18.3604 21.5232Z" fill="#3BC5ED"/>
<path d="M5.01283 33.0021L5.01338 49.7015L13.229 49.6719L13.229 22.2647C8.69085 23.8961 5.36876 28.0783 5.01283 33.0021Z" fill="#B72455"/>
<path d="M39.3313 22.0571H30.4625L43.0093 49.7015L47.4289 39.9132L39.3313 22.0571Z" fill="#35AC7D"/>
<path d="M55.5264 22.0571L47.4289 39.9132L51.878 49.7015L64.3952 22.0571H55.5264Z" fill="#EBB12B"/>
<path d="M43.0093 49.7015H51.878L47.4289 39.9132L43.0093 49.7015Z" fill="#016C3D"/>
<path d="M91.9508 12.773V22.0274H87.1753V13.7815C87.1753 12.0018 86.1372 10.8153 84.5651 10.8153C82.6964 10.8153 81.4803 12.1205 81.4803 15.0273V22.0274H76.6752V0.404175H81.4803V8.38311C82.6371 7.19665 84.2092 6.48477 86.1372 6.48477C89.6076 6.48477 91.9508 8.97634 91.9508 12.773Z" fill="#010101"/>
<path d="M110.281 14.4934C110.281 19.2688 106.484 22.4426 102.035 22.4426C97.4671 22.4426 93.7001 19.2688 93.7001 14.4934C93.7001 9.74752 97.4671 6.57374 102.035 6.57374C106.484 6.54408 110.281 9.74752 110.281 14.4934ZM105.654 14.4934C105.654 12.1501 103.874 10.578 102.035 10.578C100.077 10.578 98.2977 12.1501 98.2977 14.4934C98.2977 16.8663 100.077 18.4087 102.035 18.4087C103.874 18.379 105.654 16.8663 105.654 14.4934Z" fill="#010101"/>
<path d="M137.422 12.5951V22.0274H132.646V13.6036C132.646 11.8832 131.549 10.8154 130.125 10.8154C128.345 10.8154 127.188 12.0908 127.188 14.6121V21.9978H122.383V13.6036C122.383 11.8832 121.286 10.8154 119.832 10.8154C118.082 10.8154 116.955 12.0908 116.955 14.6121V21.9978H112.15V6.9594H116.955V8.35348C117.964 7.22635 119.447 6.51447 121.404 6.51447C123.51 6.51447 125.32 7.40432 126.328 9.06536C127.515 7.4933 129.324 6.51447 131.667 6.51447C134.871 6.48481 137.422 8.91705 137.422 12.5951Z" fill="#010101"/>
<path d="M154.862 15.7095H143.828C144.244 17.5188 145.578 18.6163 147.269 18.6163C148.337 18.6163 149.494 18.3493 150.324 17.2815L154.121 19.0909C152.667 21.3451 150.235 22.4426 147.239 22.4426C142.761 22.4426 139.083 19.2392 139.083 14.4637C139.083 9.71786 142.672 6.48476 147.061 6.48476C151.333 6.48476 154.744 9.53989 154.833 14.4637V15.7095H154.862ZM143.917 12.773H150.117C149.642 11.1416 148.426 10.4001 147.091 10.4001C145.727 10.4001 144.362 11.2306 143.917 12.773Z" fill="#010101"/>
<path d="M163.108 18.8834C164.383 18.8834 165.065 18.3495 165.065 17.6969C165.065 17.1927 164.739 16.8071 163.582 16.5994L160.646 16.0062C157.858 15.4723 156.256 13.9892 156.256 11.6163C156.256 8.53151 158.926 6.51453 162.752 6.51453C166.074 6.51453 168.388 7.8493 169.337 9.95526L165.036 11.2307C164.71 10.5188 163.909 9.89594 162.663 9.89594C161.358 9.89594 160.943 10.5188 160.943 11.0527C160.943 11.468 161.121 11.8833 162.07 12.0909L165.451 12.8028C168.299 13.4257 169.633 15.1164 169.633 17.341C169.633 20.6631 166.756 22.4131 162.782 22.4131C159.637 22.4131 156.879 21.4046 155.93 18.9723L160.498 17.3706C160.883 18.4681 161.892 18.8834 163.108 18.8834Z" fill="#010101"/>
<path d="M92.5443 34.6335L86.2858 49.7312H81.3916L75.1627 34.6335H80.2348L83.8239 43.9472L87.4722 34.6335H92.5443Z" fill="#010101"/>
<path d="M99.3073 30.214C99.3073 31.7564 98.1505 32.8836 96.5191 32.8836C94.8877 32.8836 93.7606 31.7564 93.7606 30.214C93.7606 28.731 94.8877 27.4852 96.5191 27.4852C98.1505 27.4852 99.3073 28.7606 99.3073 30.214ZM98.9217 49.7313H94.1165V34.6633H98.9217V49.7313Z" fill="#010101"/>
<path d="M116.066 45.3117C114.998 48.3075 112.061 50.1762 108.68 50.1762C104.171 50.1762 100.464 46.9727 100.464 42.1973C100.464 37.4514 104.171 34.2183 108.68 34.2183C111.943 34.2183 114.82 36.0277 116.006 38.9048L111.616 40.3879C111.083 39.0531 109.955 38.4302 108.68 38.4302C106.515 38.4302 105.091 40.032 105.091 42.2269C105.091 44.4515 106.544 45.9939 108.68 45.9939C110.015 45.9939 111.112 45.371 111.735 43.9769L116.066 45.3117Z" fill="#010101"/>
<path d="M129.71 49.0787C128.553 49.7016 127.308 50.1761 125.587 50.1761C121.82 50.1761 119.596 48.1295 119.596 44.1845V38.4895H116.867V34.6929H119.596V30.2436H124.401V34.6929H128.85V38.4895H124.401V43.7099C124.401 45.282 125.142 45.9049 126.418 45.9049C127.07 45.9049 127.99 45.6676 128.613 45.3117L129.71 49.0787Z" fill="#010101"/>
<path d="M146.617 42.1972C146.617 46.9727 142.82 50.1464 138.371 50.1464C133.803 50.1464 130.036 46.9727 130.036 42.1972C130.036 37.4513 133.803 34.2775 138.371 34.2775C142.82 34.2775 146.617 37.4513 146.617 42.1972ZM141.989 42.1972C141.989 39.8539 140.21 38.2818 138.371 38.2818C136.413 38.2818 134.663 39.8539 134.663 42.1972C134.663 44.5701 136.443 46.1125 138.371 46.1125C140.21 46.1125 141.989 44.5701 141.989 42.1972Z" fill="#010101"/>
<path d="M159.223 34.5742L159.015 39.3793H158.155C154.803 39.3793 152.964 41.1294 152.964 45.015V49.7312H148.159V34.6632H152.964V37.5403C154.032 35.731 155.693 34.4555 158.155 34.4555C158.57 34.4555 158.867 34.4852 159.223 34.5742Z" fill="#010101"/>
<path d="M166.104 30.214C166.104 31.7564 164.947 32.8836 163.316 32.8836C161.684 32.8836 160.557 31.7564 160.557 30.214C160.557 28.731 161.684 27.4852 163.316 27.4852C164.918 27.4852 166.104 28.7606 166.104 30.214ZM165.718 49.7313H160.913V34.6633H165.718V49.7313Z" fill="#010101"/>
<path d="M184.376 34.6631V49.7312H179.571V48.5447C178.414 49.5829 176.842 50.2057 174.884 50.2057C170.88 50.2057 167.528 47.0023 167.528 42.2268C167.528 37.481 170.88 34.2479 174.884 34.2479C176.842 34.2479 178.385 34.8411 179.571 35.9089V34.7225H184.376V34.6631ZM179.571 42.1972C179.571 39.8836 177.821 38.2818 175.893 38.2818C173.787 38.2818 172.274 39.8836 172.274 42.1972C172.274 44.5404 173.817 46.1125 175.893 46.1125C177.821 46.1125 179.571 44.5404 179.571 42.1972Z" fill="#010101"/>
</g>
</svg>
