<svg width="185" height="51" viewBox="0 0 185 51" fill="none" xmlns="http://www.w3.org/2000/svg">
<g id="Group" style="mix-blend-mode:luminosity">
<path id="Vector" d="M13.229 22.2635V8.44121C13.229 0.996183 5.81369 0.402954 5.81369 0.402954H0.711914V9.00478C0.711914 9.00478 5.04249 9.00478 5.01283 9.00478V33.0009C5.36876 28.0771 8.69085 23.8948 13.229 22.2635Z" fill="#E0255C"/>
<path id="Vector_2" d="M4.9834 33.8314V49.7003H5.01306V33.0009C5.01306 33.2975 4.9834 33.5644 4.9834 33.8314Z" fill="#3C90CE"/>
<path id="Vector_3" d="M18.3603 21.522H17.5298C16.0171 21.522 14.5636 21.7889 13.2289 22.2635V49.6707H13.1992V34.0984C13.1992 31.3992 15.0086 29.2043 17.6484 29.2043H17.9747C20.6146 29.2043 22.8095 31.4289 22.8095 34.1281V49.6707H30.9071V33.8018C30.9071 27.0687 25.2714 21.522 18.3603 21.522Z" fill="#3BC5ED"/>
<path id="Vector_4" d="M5.0127 33.0009V49.7003L13.2289 49.6706V22.2634C8.69072 23.8948 5.36863 28.0771 5.0127 33.0009Z" fill="#B72455"/>
<path id="Vector_5" d="M39.3317 22.0558H30.4629L43.0097 49.7003L47.4292 39.912L39.3317 22.0558Z" fill="#35AC7D"/>
<path id="Vector_6" d="M55.5263 22.0558L47.4287 39.912L51.8779 49.7003L64.3951 22.0558H55.5263Z" fill="#EBB12B"/>
<path id="Vector_7" d="M43.0088 49.7003H51.8776L47.4283 39.912L43.0088 49.7003Z" fill="#016C3D"/>
<path id="Vector_8" d="M91.9505 12.7718V22.0262H87.175V13.7803C87.175 12.0006 86.1368 10.8141 84.5648 10.8141C82.6961 10.8141 81.48 12.1192 81.48 15.0261V22.0262H76.6748V0.402954H81.48V8.38189C82.6368 7.19543 84.2088 6.48355 86.1368 6.48355C89.6072 6.48355 91.9505 8.97512 91.9505 12.7718Z" fill="#010101"/>
<path id="Vector_9" d="M110.281 14.4921C110.281 19.2676 106.484 22.4414 102.035 22.4414C97.4672 22.4414 93.7002 19.2676 93.7002 14.4921C93.7002 9.74625 97.4672 6.57247 102.035 6.57247C106.484 6.54281 110.281 9.74625 110.281 14.4921ZM105.654 14.4921C105.654 12.1488 103.874 10.5768 102.035 10.5768C100.077 10.5768 98.2977 12.1488 98.2977 14.4921C98.2977 16.865 100.077 18.4074 102.035 18.4074C103.874 18.3777 105.654 16.865 105.654 14.4921Z" fill="#010101"/>
<path id="Vector_10" d="M137.422 12.5938V22.0262H132.646V13.6023C132.646 11.8819 131.549 10.8141 130.125 10.8141C128.346 10.8141 127.189 12.0896 127.189 14.6108V21.9965H122.384V13.6023C122.384 11.8819 121.286 10.8141 119.833 10.8141C118.083 10.8141 116.956 12.0896 116.956 14.6108V21.9965H112.15V6.95813H116.956V8.35222C117.964 7.22508 119.447 6.51321 121.405 6.51321C123.511 6.51321 125.32 7.40305 126.329 9.06409C127.515 7.49204 129.324 6.51321 131.668 6.51321C134.871 6.48355 137.422 8.91579 137.422 12.5938Z" fill="#010101"/>
<path id="Vector_11" d="M154.863 15.7082H143.829C144.244 17.5176 145.579 18.6151 147.27 18.6151C148.337 18.6151 149.494 18.3481 150.325 17.2803L154.121 19.0896C152.668 21.3439 150.236 22.4414 147.24 22.4414C142.761 22.4414 139.083 19.2379 139.083 14.4625C139.083 9.71662 142.672 6.48352 147.062 6.48352C151.333 6.48352 154.744 9.53865 154.833 14.4625V15.7082H154.863ZM143.918 12.7717H150.117C149.642 11.1404 148.426 10.3988 147.092 10.3988C145.727 10.3988 144.363 11.2294 143.918 12.7717Z" fill="#010101"/>
<path id="Vector_12" d="M163.108 18.8821C164.383 18.8821 165.065 18.3482 165.065 17.6957C165.065 17.1914 164.739 16.8058 163.582 16.5982L160.646 16.005C157.858 15.4711 156.256 13.988 156.256 11.6151C156.256 8.53028 158.925 6.51331 162.752 6.51331C166.074 6.51331 168.388 7.84807 169.337 9.95404L165.036 11.2295C164.709 10.5176 163.909 9.89471 162.663 9.89471C161.358 9.89471 160.942 10.5176 160.942 11.0515C160.942 11.4668 161.12 11.882 162.07 12.0897L165.451 12.8015C168.299 13.4244 169.633 15.1151 169.633 17.3397C169.633 20.6618 166.756 22.4118 162.781 22.4118C159.637 22.4118 156.879 21.4034 155.93 18.9711L160.498 17.3694C160.883 18.4669 161.892 18.8821 163.108 18.8821Z" fill="#010101"/>
<path id="Vector_13" d="M92.5447 34.6323L86.2861 49.73H81.392L75.1631 34.6323H80.2352L83.8242 43.946L87.4726 34.6323H92.5447Z" fill="#010101"/>
<path id="Vector_14" d="M99.3074 30.2127C99.3074 31.7551 98.1506 32.8823 96.5193 32.8823C94.8879 32.8823 93.7607 31.7551 93.7607 30.2127C93.7607 28.7297 94.8879 27.4839 96.5193 27.4839C98.1506 27.4839 99.3074 28.7593 99.3074 30.2127ZM98.9218 49.73H94.1167V34.662H98.9218V49.73Z" fill="#010101"/>
<path id="Vector_15" d="M116.066 45.3104C114.998 48.3062 112.062 50.1749 108.68 50.1749C104.172 50.1749 100.464 46.9715 100.464 42.196C100.464 37.4501 104.172 34.217 108.68 34.217C111.943 34.217 114.82 36.0264 116.006 38.9036L111.617 40.3866C111.083 39.0519 109.956 38.429 108.68 38.429C106.515 38.429 105.091 40.0307 105.091 42.2256C105.091 44.4502 106.544 45.9926 108.68 45.9926C110.015 45.9926 111.112 45.3697 111.735 43.9757L116.066 45.3104Z" fill="#010101"/>
<path id="Vector_16" d="M129.711 49.0775C128.554 49.7004 127.308 50.1749 125.588 50.1749C121.821 50.1749 119.596 48.1283 119.596 44.1833V38.4883H116.867V34.6917H119.596V30.2424H124.401V34.6917H128.85V38.4883H124.401V43.7087C124.401 45.2808 125.143 45.9037 126.418 45.9037C127.071 45.9037 127.99 45.6664 128.613 45.3105L129.711 49.0775Z" fill="#010101"/>
<path id="Vector_17" d="M146.617 42.196C146.617 46.9715 142.82 50.1452 138.371 50.1452C133.803 50.1452 130.036 46.9715 130.036 42.196C130.036 37.4501 133.803 34.2764 138.371 34.2764C142.82 34.2764 146.617 37.4501 146.617 42.196ZM141.99 42.196C141.99 39.8527 140.21 38.2807 138.371 38.2807C136.413 38.2807 134.663 39.8527 134.663 42.196C134.663 44.5689 136.443 46.1113 138.371 46.1113C140.21 46.1113 141.99 44.5689 141.99 42.196Z" fill="#010101"/>
<path id="Vector_18" d="M159.223 34.573L159.015 39.3781H158.155C154.803 39.3781 152.964 41.1282 152.964 45.0138V49.73H148.159V34.662H152.964V37.5391C154.032 35.7298 155.693 34.4543 158.155 34.4543C158.57 34.4543 158.867 34.484 159.223 34.573Z" fill="#010101"/>
<path id="Vector_19" d="M166.104 30.2127C166.104 31.7551 164.948 32.8823 163.316 32.8823C161.685 32.8823 160.558 31.7551 160.558 30.2127C160.558 28.7297 161.685 27.4839 163.316 27.4839C164.918 27.4839 166.104 28.7593 166.104 30.2127ZM165.719 49.73H160.914V34.662H165.719V49.73Z" fill="#010101"/>
<path id="Vector_20" d="M184.376 34.6618V49.7299H179.571V48.5434C178.414 49.5816 176.842 50.2044 174.884 50.2044C170.88 50.2044 167.528 47.001 167.528 42.2255C167.528 37.4797 170.88 34.2466 174.884 34.2466C176.842 34.2466 178.384 34.8398 179.571 35.9076V34.7212H184.376V34.6618ZM179.571 42.1959C179.571 39.8823 177.821 38.2805 175.893 38.2805C173.787 38.2805 172.274 39.8823 172.274 42.1959C172.274 44.5391 173.817 46.1112 175.893 46.1112C177.821 46.1112 179.571 44.5391 179.571 42.1959Z" fill="#010101"/>
</g>
</svg>
