<svg width="185" height="91" viewBox="0 0 185 91" fill="none" xmlns="http://www.w3.org/2000/svg">
<g style="mix-blend-mode:luminosity">
<path d="M13.229 42.2647V28.4425C13.229 20.9974 5.81369 20.4042 5.81369 20.4042H0.711914V29.006C0.711914 29.006 5.04249 29.006 5.01283 29.006V53.0021C5.36876 48.0783 8.69085 43.8961 13.229 42.2647Z" fill="#E0255C"/>
<path d="M4.98372 53.8326V69.7015H5.01338L5.01283 53.0021C5.01283 53.2988 4.98372 53.5657 4.98372 53.8326Z" fill="#3C90CE"/>
<path d="M18.3604 41.5232H17.5299C16.0172 41.5232 14.5638 41.7901 13.229 42.2647L13.229 69.6719H13.1993V54.0996C13.1993 51.4004 15.0087 49.2055 17.6485 49.2055H17.9748C20.6147 49.2055 22.8096 51.4301 22.8096 54.1293V69.6719H30.9072V53.803C30.9072 47.0699 25.2715 41.5232 18.3604 41.5232Z" fill="#3BC5ED"/>
<path d="M5.01283 53.0021L5.01338 69.7015L13.229 69.6719L13.229 42.2647C8.69085 43.8961 5.36876 48.0783 5.01283 53.0021Z" fill="#B72455"/>
<path d="M39.3313 42.0571H30.4625L43.0093 69.7015L47.4289 59.9132L39.3313 42.0571Z" fill="#35AC7D"/>
<path d="M55.5264 42.0571L47.4289 59.9132L51.878 69.7015L64.3952 42.0571H55.5264Z" fill="#EBB12B"/>
<path d="M43.0093 69.7015H51.878L47.4289 59.9132L43.0093 69.7015Z" fill="#016C3D"/>
<path d="M91.9508 32.773V42.0274H87.1753V33.7815C87.1753 32.0018 86.1372 30.8153 84.5651 30.8153C82.6964 30.8153 81.4803 32.1205 81.4803 35.0273V42.0274H76.6752V20.4042H81.4803V28.3831C82.6371 27.1966 84.2092 26.4848 86.1372 26.4848C89.6076 26.4848 91.9508 28.9763 91.9508 32.773Z" fill="#010101"/>
<path d="M110.281 34.4934C110.281 39.2688 106.484 42.4426 102.035 42.4426C97.4671 42.4426 93.7001 39.2688 93.7001 34.4934C93.7001 29.7475 97.4671 26.5737 102.035 26.5737C106.484 26.5441 110.281 29.7475 110.281 34.4934ZM105.654 34.4934C105.654 32.1501 103.874 30.578 102.035 30.578C100.077 30.578 98.2977 32.1501 98.2977 34.4934C98.2977 36.8663 100.077 38.4087 102.035 38.4087C103.874 38.379 105.654 36.8663 105.654 34.4934Z" fill="#010101"/>
<path d="M137.422 32.5951V42.0274H132.646V33.6036C132.646 31.8832 131.549 30.8154 130.125 30.8154C128.345 30.8154 127.188 32.0908 127.188 34.6121V41.9978H122.383V33.6036C122.383 31.8832 121.286 30.8154 119.832 30.8154C118.082 30.8154 116.955 32.0908 116.955 34.6121V41.9978H112.15V26.9594H116.955V28.3535C117.964 27.2263 119.447 26.5145 121.404 26.5145C123.51 26.5145 125.32 27.4043 126.328 29.0654C127.515 27.4933 129.324 26.5145 131.667 26.5145C134.871 26.4848 137.422 28.9171 137.422 32.5951Z" fill="#010101"/>
<path d="M154.862 35.7095H143.828C144.244 37.5188 145.578 38.6163 147.269 38.6163C148.337 38.6163 149.494 38.3493 150.324 37.2815L154.121 39.0909C152.667 41.3451 150.235 42.4426 147.239 42.4426C142.761 42.4426 139.083 39.2392 139.083 34.4637C139.083 29.7179 142.672 26.4848 147.061 26.4848C151.333 26.4848 154.744 29.5399 154.833 34.4637V35.7095H154.862ZM143.917 32.773H150.117C149.642 31.1416 148.426 30.4001 147.091 30.4001C145.727 30.4001 144.362 31.2306 143.917 32.773Z" fill="#010101"/>
<path d="M163.108 38.8834C164.383 38.8834 165.065 38.3495 165.065 37.6969C165.065 37.1927 164.739 36.8071 163.582 36.5994L160.646 36.0062C157.858 35.4723 156.256 33.9892 156.256 31.6163C156.256 28.5315 158.926 26.5145 162.752 26.5145C166.074 26.5145 168.388 27.8493 169.337 29.9553L165.036 31.2307C164.71 30.5188 163.909 29.8959 162.663 29.8959C161.358 29.8959 160.943 30.5188 160.943 31.0527C160.943 31.468 161.121 31.8833 162.07 32.0909L165.451 32.8028C168.299 33.4257 169.633 35.1164 169.633 37.341C169.633 40.6631 166.756 42.4131 162.782 42.4131C159.637 42.4131 156.879 41.4046 155.93 38.9723L160.498 37.3706C160.883 38.4681 161.892 38.8834 163.108 38.8834Z" fill="#010101"/>
<path d="M92.5443 54.6335L86.2858 69.7312H81.3916L75.1627 54.6335H80.2348L83.8239 63.9472L87.4722 54.6335H92.5443Z" fill="#010101"/>
<path d="M99.3073 50.214C99.3073 51.7564 98.1505 52.8836 96.5191 52.8836C94.8877 52.8836 93.7606 51.7564 93.7606 50.214C93.7606 48.731 94.8877 47.4852 96.5191 47.4852C98.1505 47.4852 99.3073 48.7606 99.3073 50.214ZM98.9217 69.7313H94.1165V54.6633H98.9217V69.7313Z" fill="#010101"/>
<path d="M116.066 65.3117C114.998 68.3075 112.061 70.1762 108.68 70.1762C104.171 70.1762 100.464 66.9727 100.464 62.1973C100.464 57.4514 104.171 54.2183 108.68 54.2183C111.943 54.2183 114.82 56.0277 116.006 58.9048L111.616 60.3879C111.083 59.0531 109.955 58.4302 108.68 58.4302C106.515 58.4302 105.091 60.032 105.091 62.2269C105.091 64.4515 106.544 65.9939 108.68 65.9939C110.015 65.9939 111.112 65.371 111.735 63.9769L116.066 65.3117Z" fill="#010101"/>
<path d="M129.71 69.0787C128.553 69.7016 127.308 70.1761 125.587 70.1761C121.82 70.1761 119.596 68.1295 119.596 64.1845V58.4895H116.867V54.6929H119.596V50.2436H124.401V54.6929H128.85V58.4895H124.401V63.7099C124.401 65.282 125.142 65.9049 126.418 65.9049C127.07 65.9049 127.99 65.6676 128.613 65.3117L129.71 69.0787Z" fill="#010101"/>
<path d="M146.617 62.1972C146.617 66.9727 142.82 70.1464 138.371 70.1464C133.803 70.1464 130.036 66.9727 130.036 62.1972C130.036 57.4513 133.803 54.2775 138.371 54.2775C142.82 54.2775 146.617 57.4513 146.617 62.1972ZM141.989 62.1972C141.989 59.8539 140.21 58.2818 138.371 58.2818C136.413 58.2818 134.663 59.8539 134.663 62.1972C134.663 64.5701 136.443 66.1125 138.371 66.1125C140.21 66.1125 141.989 64.5701 141.989 62.1972Z" fill="#010101"/>
<path d="M159.223 54.5742L159.015 59.3793H158.155C154.803 59.3793 152.964 61.1294 152.964 65.015V69.7312H148.159V54.6632H152.964V57.5403C154.032 55.731 155.693 54.4555 158.155 54.4555C158.57 54.4555 158.867 54.4852 159.223 54.5742Z" fill="#010101"/>
<path d="M166.104 50.214C166.104 51.7564 164.947 52.8836 163.316 52.8836C161.684 52.8836 160.557 51.7564 160.557 50.214C160.557 48.731 161.684 47.4852 163.316 47.4852C164.918 47.4852 166.104 48.7606 166.104 50.214ZM165.718 69.7313H160.913V54.6633H165.718V69.7313Z" fill="#010101"/>
<path d="M184.376 54.6631V69.7312H179.571V68.5447C178.414 69.5829 176.842 70.2057 174.884 70.2057C170.88 70.2057 167.528 67.0023 167.528 62.2268C167.528 57.481 170.88 54.2479 174.884 54.2479C176.842 54.2479 178.385 54.8411 179.571 55.9089V54.7225H184.376V54.6631ZM179.571 62.1972C179.571 59.8836 177.821 58.2818 175.893 58.2818C173.787 58.2818 172.274 59.8836 172.274 62.1972C172.274 64.5404 173.817 66.1125 175.893 66.1125C177.821 66.1125 179.571 64.5404 179.571 62.1972Z" fill="#010101"/>
</g>
</svg>
