<svg width="202" height="59" viewBox="0 0 202 59" fill="none" xmlns="http://www.w3.org/2000/svg">
<g id="Vector" style="mix-blend-mode:luminosity">
<path fill-rule="evenodd" clip-rule="evenodd" d="M181.115 1.75751C181.115 2.55599 181.751 3.18811 182.554 3.18811C183.357 3.18811 183.993 2.55599 183.993 1.75751C183.993 0.959033 183.357 0.326904 182.554 0.326904C181.784 0.326904 181.115 0.959033 181.115 1.75751ZM175.258 4.81834C175.994 4.81834 176.597 4.21948 176.597 3.48754C176.597 2.7556 175.994 2.15675 175.258 2.15675C174.522 2.15675 173.919 2.7556 173.919 3.48754C173.953 4.21948 174.522 4.81834 175.258 4.81834ZM169.368 5.15104C169.368 5.81643 168.799 6.38202 168.129 6.38202C167.46 6.38202 166.891 5.8497 166.891 5.15104C166.891 4.48564 167.46 3.92005 168.129 3.92005C168.799 3.92005 169.368 4.48564 169.368 5.15104ZM187.541 7.77936C188.578 7.77936 189.381 6.94761 189.381 5.94951C189.381 4.95141 188.545 4.11967 187.541 4.11967C186.537 4.11967 185.7 4.95141 185.7 5.94951C185.7 6.94761 186.503 7.77936 187.541 7.77936ZM181.182 7.1805C181.182 8.07878 180.446 8.81072 179.542 8.81072C178.638 8.81072 177.902 8.07878 177.902 7.1805C177.902 6.28221 178.638 5.55027 179.542 5.55027C180.446 5.55027 181.182 6.28221 181.182 7.1805ZM161.269 7.77936C161.838 7.77936 162.306 7.31358 162.306 6.74799C162.306 6.1824 161.838 5.71662 161.269 5.71662C160.7 5.71662 160.231 6.1824 160.231 6.74799C160.231 7.31358 160.7 7.77936 161.269 7.77936ZM12.9736 16.0968C13.7768 16.4628 14.4796 16.9951 15.0486 17.727C15.6175 18.459 15.9187 19.4238 15.9187 20.6215C15.9187 21.786 15.6175 22.7841 14.9816 23.6491C14.3457 24.4808 13.5091 25.1462 12.4381 25.5787C11.3671 26.0112 10.1288 26.2441 8.72319 26.2441C7.25061 26.2441 5.77804 25.978 4.33893 25.4789C2.89982 24.9466 1.66152 24.2479 0.624023 23.3497L2.69902 20.3554C3.53571 21.054 4.43933 21.6862 5.47683 22.1187C6.68166 22.6177 7.78609 22.8839 8.79012 22.8839C9.66028 22.8839 10.3296 22.7175 10.7982 22.4181C11.2667 22.1187 11.5345 21.5198 11.5345 20.921C11.5345 20.4552 11.3671 20.0559 11.0325 19.7565C10.6978 19.4571 10.2962 19.2242 9.79415 19.0246C9.29214 18.825 8.62278 18.6253 7.71916 18.3592C6.44739 18.0265 5.44336 17.6605 4.64014 17.3278C3.83691 16.9951 3.16756 16.4628 2.56514 15.7309C1.9962 15.0322 1.69499 14.0674 1.69499 12.9029C1.69499 11.805 1.9962 10.8402 2.59861 10.0084C3.20103 9.17669 4.03772 8.54457 5.10869 8.11206C6.17965 7.67955 7.41795 7.44665 8.82359 7.44665C10.0954 7.44665 11.3337 7.613 12.5385 7.97897C13.7768 8.34494 14.8478 8.84399 15.7849 9.44285L13.6429 12.5369C12.8732 12.1044 12.0365 11.7385 11.1998 11.4723C10.1288 11.1396 9.2252 10.9733 8.48891 10.9733C7.78609 10.9733 7.21714 11.1063 6.78207 11.3725C6.34699 11.6387 6.14618 12.0046 6.14618 12.5037C6.14618 13.1358 6.44739 13.6348 7.04981 13.9675C7.65222 14.3002 8.58932 14.6662 9.86109 15.0322C11.0994 15.3649 12.1369 15.7309 12.9736 16.0968ZM171.644 10.3079C172.447 10.3079 173.083 9.67574 173.083 8.87726C173.083 8.07878 172.447 7.44665 171.644 7.44665C170.84 7.44665 170.204 8.07878 170.204 8.87726C170.204 9.64247 170.84 10.3079 171.644 10.3079ZM60.9996 7.81262V26.0778H65.0492V18.8582C65.0826 17.3611 65.5177 15.2983 68.1617 15.2983C70.4375 15.2983 70.8056 17.2613 70.8056 18.1263V26.0778H74.8552V17.2613C74.8552 15.5978 74.3867 14.3002 73.483 13.3354C72.5794 12.3706 71.2072 11.8715 69.6677 11.8715C66.9903 11.8715 65.8859 12.9362 65.0492 13.9675V7.81262H60.9996ZM96.7096 7.81262V11.2062H86.7697V15.2983H95.3039V18.5588H86.7697V22.651H96.7096V26.0445H82.7201V7.77936H96.7096V7.81262ZM163.477 11.1396C164.18 11.1396 164.749 10.574 164.749 9.87536C164.749 9.17669 164.18 8.6111 163.477 8.6111C162.775 8.6111 162.206 9.17669 162.206 9.87536C162.206 10.574 162.775 11.1396 163.477 11.1396ZM58.0879 22.5179C57.5524 22.7175 57.0504 22.8173 56.6153 22.8173C55.7452 22.8173 55.3436 22.285 55.3436 21.1871V15.2651H59.1589V12.0046H55.3436V8.74418H51.3275V12.0046H49.3529V15.2651H51.3275V21.8525C51.3275 23.2498 51.7291 24.3145 52.5658 25.0464C53.4025 25.7784 54.4734 26.1776 55.7787 26.1776C57.9875 26.1776 59.3262 25.2793 59.8617 24.9799L58.0879 22.5179ZM132.988 22.8173C133.457 22.8173 133.926 22.7175 134.461 22.5179L136.201 25.0131C135.666 25.3126 134.327 26.2109 132.118 26.2109C130.813 26.2109 129.742 25.8449 128.905 25.0797C128.069 24.3478 127.667 23.2498 127.667 21.8858V15.2983H125.693V12.0379H127.667V8.77745H131.683V12.0379H135.532V15.2983H131.683V21.2204C131.683 22.285 132.118 22.8173 132.988 22.8173ZM194.97 11.5721C194.97 12.9362 193.833 14.0674 192.46 14.0674C191.088 14.0674 189.95 12.9362 189.95 11.5721C189.95 10.2081 191.088 9.07688 192.46 9.07688C193.866 9.07688 194.97 10.1748 194.97 11.5721ZM182.989 14.6329C184.16 14.6329 185.098 13.7014 185.098 12.5369C185.098 11.3725 184.16 10.4409 182.989 10.4409C181.818 10.4409 180.881 11.3725 180.881 12.5369C180.847 13.7014 181.818 14.6329 182.989 14.6329ZM123.919 19.5902C123.45 19.0246 122.881 18.5921 122.245 18.3259C121.609 18.0265 120.773 17.7603 119.769 17.4609C118.865 17.1947 118.196 16.9618 117.794 16.7622C117.393 16.5626 117.192 16.2632 117.192 15.8639C117.192 15.5312 117.326 15.2651 117.627 15.0987C117.928 14.9324 118.33 14.8326 118.798 14.8326C119.401 14.8326 120.07 14.9656 120.806 15.1985C121.442 15.3982 122.078 15.6643 122.714 15.997L124.488 13.4685C123.718 12.9695 122.814 12.5702 121.877 12.3041C120.907 12.0379 119.936 11.9048 118.999 11.9048C117.393 11.9048 116.054 12.2708 115.016 13.036C113.979 13.8012 113.443 14.8658 113.443 16.2632C113.443 17.1615 113.678 17.8934 114.113 18.459C114.581 19.0246 115.117 19.4571 115.753 19.7232C116.389 19.9894 117.192 20.2888 118.162 20.555C119.066 20.8211 119.735 21.054 120.137 21.2869C120.538 21.5198 120.739 21.8192 120.739 22.2185C120.739 22.5844 120.572 22.8506 120.237 23.0502C119.903 23.2166 119.468 23.3164 118.932 23.3164C118.129 23.3164 117.326 23.15 116.422 22.8506C115.686 22.5844 115.016 22.2517 114.414 21.8192L112.707 24.2479C113.477 24.8801 114.414 25.3458 115.485 25.7118C116.556 26.0445 117.66 26.2109 118.832 26.2109C120.505 26.2109 121.877 25.8116 122.948 25.0464C124.019 24.2812 124.555 23.1833 124.555 21.786C124.622 20.8877 124.387 20.1558 123.919 19.5902ZM105.277 11.8715C107.151 11.8715 108.724 12.3041 109.762 13.2023C110.799 14.1006 111.234 15.3316 111.268 16.8953V26.0445H107.319V24.1149C106.85 24.7137 105.679 26.1776 102.901 26.1776C101.395 26.1776 100.224 25.8116 99.3535 24.9799C98.4833 24.1814 98.0483 23.1168 98.0483 21.8192C98.0483 20.4884 98.5168 19.4571 99.4539 18.7251C100.391 17.9932 101.73 17.6272 103.437 17.594H107.352V17.3278C107.352 16.5959 107.118 15.997 106.616 15.5978C106.114 15.1985 105.344 14.9989 104.407 14.9989C103.236 14.9989 101.997 15.3316 100.692 15.9637L98.9519 13.4352C100.056 12.8696 101.127 12.4704 102.098 12.2042C103.035 12.0046 104.106 11.8715 105.277 11.8715ZM28.7368 12.8031C29.8747 13.402 30.7783 14.2337 31.4142 15.2983C32.0501 16.363 32.3513 17.6272 32.3513 19.0578C32.3513 20.4552 32.0501 21.7194 31.4142 22.7841C30.7783 23.882 29.9082 24.7137 28.7368 25.3126C27.5989 25.9114 26.2602 26.2109 24.7876 26.2109C23.2816 26.2109 21.9429 25.9114 20.805 25.3126C19.6671 24.7137 18.7635 23.882 18.1276 22.7841C17.4917 21.6862 17.1905 20.4552 17.1905 19.0578C17.1905 17.6272 17.5252 16.3962 18.1276 15.2983C18.7635 14.2337 19.6336 13.402 20.805 12.8031C21.9429 12.2042 23.2816 11.9048 24.7876 11.9048C26.2602 11.9048 27.5989 12.2042 28.7368 12.8031ZM47.713 12.0379V26.0778H43.6634V24.1481C42.8602 25.1462 41.7557 26.2109 39.0448 26.2109C37.4719 26.2109 36.1332 25.7118 35.2295 24.747C34.3259 23.7822 33.8574 22.4846 33.8574 20.8211V12.0046H37.9069V19.9561C37.9069 20.8544 38.2751 22.8173 40.5509 22.8173C43.1948 22.8173 43.6299 20.7213 43.6634 19.2575V12.0379H47.713ZM176.162 13.9675C176.162 14.9989 175.292 15.8639 174.254 15.8639C173.217 15.8639 172.346 15.0322 172.346 13.9675C172.346 12.9362 173.183 12.0712 174.254 12.0712C175.292 12.0712 176.162 12.9362 176.162 13.9675ZM166.054 14.2337C166.054 15.0655 165.385 15.7309 164.548 15.7309C163.712 15.7309 163.042 15.0655 163.042 14.2337C163.042 13.402 163.712 12.7366 164.548 12.7366C165.385 12.7366 166.054 13.402 166.054 14.2337ZM27.3312 21.786C26.6618 22.4846 25.8251 22.8173 24.7876 22.8173C23.7501 22.8173 22.88 22.4846 22.2441 21.786C21.5748 21.0873 21.2735 20.189 21.2735 19.0578C21.2735 17.9267 21.6082 17.0284 22.2441 16.3297C22.9135 15.631 23.7501 15.2983 24.7876 15.2983C25.8251 15.2983 26.6618 15.631 27.3312 16.3297C28.0005 17.0284 28.3017 17.9267 28.3017 19.0578C28.3017 20.189 27.9671 21.0873 27.3312 21.786ZM196.543 21.786C198.083 21.786 199.355 20.5217 199.355 18.9913C199.355 17.4609 198.083 16.1966 196.543 16.1966C195.004 16.1966 193.732 17.4609 193.732 18.9913C193.732 20.5217 194.97 21.786 196.543 21.786ZM187.507 19.5902C187.507 20.9542 186.369 22.0854 184.997 22.0854C183.625 22.0854 182.487 20.9542 182.487 19.5902C182.487 18.2261 183.625 17.0949 184.997 17.0949C186.369 17.0949 187.507 18.1928 187.507 19.5902ZM162.574 20.555C163.544 20.555 164.314 19.7898 164.314 18.8249C164.314 17.8601 163.544 17.0949 162.574 17.0949C161.603 17.0949 160.834 17.8601 160.834 18.8249C160.834 19.7898 161.603 20.555 162.574 20.555ZM174.221 22.5512C175.459 22.5512 176.463 21.5531 176.463 20.3221C176.463 19.0911 175.459 18.093 174.221 18.093C172.982 18.093 171.978 19.0911 171.978 20.3221C171.978 21.5531 172.982 22.5512 174.221 22.5512ZM150.894 19.6567C150.894 20.2223 150.425 20.6881 149.856 20.6881C149.287 20.6881 148.819 20.2223 148.819 19.6567C148.819 19.0911 149.287 18.6253 149.856 18.6253C150.459 18.6586 150.894 19.1244 150.894 19.6567ZM158.123 22.5845C158.959 22.5845 159.629 21.9191 159.629 21.0873C159.629 20.2556 158.959 19.5902 158.123 19.5902C157.286 19.5902 156.617 20.2556 156.617 21.0873C156.617 21.9191 157.286 22.5845 158.123 22.5845ZM154.876 21.0208C154.876 21.7194 154.307 22.285 153.605 22.285C152.902 22.285 152.333 21.7194 152.333 21.0208C152.333 20.3221 152.902 19.7565 153.605 19.7565C154.307 19.7565 154.876 20.3221 154.876 21.0208ZM107.319 21.1871C107.185 21.7527 106.817 22.1519 106.214 22.5179C105.612 22.8839 104.876 23.0835 104.039 23.0835C103.37 23.0835 102.801 22.9171 102.433 22.6177C102.031 22.3183 101.83 21.9856 101.83 21.4865C101.83 20.9542 102.031 20.5883 102.399 20.3554C102.767 20.1225 103.37 19.9894 104.139 19.9894H107.319V21.1871ZM173.317 26.6101C173.317 28.0074 172.146 29.1719 170.74 29.1719C169.334 29.1719 168.163 28.0074 168.163 26.6101C168.163 25.1795 169.334 24.0483 170.74 24.0483C172.179 24.0483 173.317 25.1795 173.317 26.6101ZM198.317 30.8354C200.024 30.8354 201.43 29.438 201.43 27.7413C201.43 26.0445 200.024 24.6472 198.317 24.6472C196.61 24.6472 195.205 26.0445 195.205 27.7413C195.238 29.438 196.61 30.8354 198.317 30.8354ZM187.44 27.6082C187.44 29.1386 186.168 30.4029 184.629 30.4029C183.089 30.4029 181.818 29.1386 181.818 27.6082C181.818 26.0778 183.089 24.8135 184.629 24.8135C186.202 24.8135 187.44 26.0778 187.44 27.6082ZM148.216 28.573C148.886 28.573 149.455 28.0407 149.455 27.342C149.455 26.6766 148.919 26.111 148.216 26.111C147.547 26.111 146.978 26.6434 146.978 27.342C146.978 28.0407 147.547 28.573 148.216 28.573ZM152.835 30.8686C153.705 30.8686 154.408 30.17 154.408 29.305C154.408 28.4399 153.705 27.7413 152.835 27.7413C151.965 27.7413 151.262 28.4399 151.262 29.305C151.262 30.17 151.965 30.8686 152.835 30.8686ZM166.992 30.2698C166.992 31.5008 165.988 32.4989 164.749 32.4989C163.511 32.4989 162.507 31.5008 162.507 30.2698C162.507 29.0388 163.511 28.0407 164.749 28.0407C165.988 28.0407 166.992 29.0388 166.992 30.2698ZM160.198 30.5692C160.198 31.6006 159.361 32.4656 158.29 32.4656C157.219 32.4656 156.382 31.6339 156.382 30.5692C156.382 29.5379 157.219 28.6728 158.29 28.6728C159.327 28.7061 160.198 29.5379 160.198 30.5692ZM180.379 38.188C182.085 38.188 183.491 36.8239 183.491 35.0939C183.491 33.3972 182.119 31.9998 180.412 31.9998C178.705 31.9998 177.3 33.3639 177.3 35.0607C177.266 36.7907 178.672 38.188 180.379 38.188ZM81.281 50.7973L87.1713 32.5321H83.1886L79.0052 45.4741L74.8887 32.5321H71.0399L66.823 45.3743L62.7734 32.5321H58.4561L64.3464 50.7973H68.7976L72.8806 38.4209L76.8298 50.7973H81.281ZM109.293 47.2707C108.758 47.4703 108.256 47.5701 107.821 47.5701C106.951 47.5701 106.549 47.0378 106.549 45.9399V40.0179H110.364V36.7574H106.549V33.497H102.533V36.7574H100.558V40.0179H102.533V46.6053C102.533 48.0026 102.935 49.0673 103.771 49.7992C104.608 50.5644 105.679 50.9304 106.984 50.9304C109.226 50.9304 110.532 50.0321 111.067 49.7327L109.293 47.2707ZM196.811 40.4836C198.685 40.4836 200.225 38.9532 200.225 37.0901C200.225 35.227 198.685 33.6966 196.811 33.6966C194.937 33.6966 193.398 35.1937 193.398 37.0901C193.431 38.9532 194.937 40.4836 196.811 40.4836ZM147.413 37.7222C147.413 38.5207 146.777 39.1528 145.974 39.1528C145.171 39.1528 144.535 38.5207 144.535 37.7222C144.535 36.9238 145.171 36.2916 145.974 36.2916C146.777 36.2916 147.413 36.9238 147.413 37.7222ZM93.3293 36.6243C95.2035 36.6243 96.7765 37.0568 97.814 37.9551C98.8515 38.8534 99.2866 40.0844 99.32 41.6481V50.7973H95.3708V48.8677C94.9023 49.4665 93.7309 50.9304 90.9531 50.9304C89.4805 50.9304 88.2757 50.5644 87.4055 49.7327C86.5354 48.9342 86.1003 47.8695 86.1003 46.572C86.1003 45.2412 86.5689 44.2099 87.506 43.4779C88.4431 42.746 89.7818 42.3468 91.4886 42.3468H95.4043V42.0806C95.4043 41.3486 95.17 40.7498 94.668 40.3506C94.166 39.9513 93.3963 39.7517 92.4592 39.7517C91.2878 39.7517 90.0495 40.0844 88.7443 40.7165L87.0039 38.188C88.1418 37.6224 89.1793 37.2232 90.1499 36.957C91.087 36.7574 92.158 36.6243 93.3293 36.6243ZM135.532 40.4171V36.6243C132.353 36.6243 131.415 38.0549 130.847 38.6871V36.7574H126.797V50.7973H130.847V44.0435C130.847 42.9456 131.215 42.0473 131.951 41.3819C132.687 40.7165 133.658 40.3838 134.896 40.3838C135.164 40.3838 135.365 40.3838 135.532 40.4171ZM120.639 47.4703C121.241 47.2042 121.81 46.8382 122.279 46.3724L124.019 48.9009C123.383 49.4998 122.647 49.9988 121.777 50.3648C120.739 50.7973 119.601 50.9969 118.363 50.9969C116.857 50.9969 115.585 50.6975 114.447 50.0986C113.343 49.4998 112.473 48.668 111.87 47.6034C111.268 46.5055 110.967 45.2745 110.967 43.8772C110.967 42.4466 111.268 41.2156 111.87 40.1177C112.473 39.0198 113.343 38.188 114.447 37.5892C115.552 36.9903 116.824 36.6909 118.229 36.6909C120.505 36.6909 122.245 37.3563 123.417 38.6538C124.588 39.9513 125.191 41.7812 125.191 44.1101C125.191 44.3762 125.191 44.6091 125.191 44.8087H115.016C115.184 45.8401 115.719 46.6386 116.355 47.1376C116.991 47.6367 117.794 47.8696 118.698 47.8696C119.367 47.8363 120.003 47.7032 120.639 47.4703ZM173.15 42.9456C174.689 42.9456 175.961 41.6814 175.961 40.1509C175.961 38.6205 174.689 37.3563 173.15 37.3563C171.61 37.3563 170.338 38.6205 170.338 40.1509C170.338 41.6814 171.61 42.9456 173.15 42.9456ZM153.102 40.4836C153.102 41.4817 152.299 42.3135 151.295 42.3135C150.291 42.3135 149.455 41.515 149.455 40.5169C149.455 39.5188 150.258 38.6871 151.262 38.6871C152.299 38.6538 153.102 39.4855 153.102 40.4836ZM165.318 44.6424C166.69 44.6424 167.828 43.5112 167.828 42.1471C167.828 40.7831 166.69 39.6519 165.318 39.6519C163.946 39.6519 162.808 40.7831 162.808 42.1471C162.808 43.5445 163.946 44.6424 165.318 44.6424ZM116.087 40.5834C116.656 40.0511 117.393 39.7517 118.263 39.7517C119.2 39.7517 119.936 40.0179 120.505 40.5834C121.007 41.0825 121.308 41.5815 121.375 42.3468H115.016C115.217 41.6148 115.585 41.0825 116.087 40.5834ZM157.855 44.1766C159.06 44.1766 160.064 43.1785 160.064 41.9808C160.064 40.7831 159.06 39.785 157.855 39.785C156.617 39.785 155.646 40.7831 155.646 41.9808C155.646 43.2118 156.617 44.1766 157.855 44.1766ZM195.238 45.707C195.238 47.7365 193.565 49.3667 191.523 49.3667C189.482 49.3667 187.842 47.7032 187.842 45.6737C187.842 43.6443 189.515 42.0141 191.557 42.0141C193.565 42.0473 195.238 43.6775 195.238 45.707ZM95.3708 45.9399C95.237 46.5055 94.8688 46.9047 94.2664 47.2707C93.664 47.6367 92.9277 47.8363 92.091 47.8363C91.3882 47.8363 90.8527 47.7032 90.4511 47.3705C90.0495 47.0711 89.8487 46.7384 89.8487 46.2393C89.8487 45.707 90.0495 45.341 90.4176 45.1081C90.7858 44.8753 91.3882 44.7422 92.158 44.7422H95.3374V45.9399H95.3708ZM143.464 50.9636C144.367 50.9636 145.07 50.2317 145.07 49.3667C145.07 48.4684 144.334 47.7697 143.464 47.7697C142.594 47.7697 141.857 48.5017 141.857 49.3667C141.857 50.265 142.594 50.9636 143.464 50.9636ZM186.671 51.3962C186.671 53.2593 185.131 54.7897 183.257 54.7897C181.383 54.7897 179.843 53.2593 179.843 51.3962C179.843 49.533 181.349 48.0026 183.257 48.0026C185.131 48.0359 186.671 49.533 186.671 51.3962ZM149.354 54.457C150.459 54.5901 151.463 53.7916 151.596 52.7269C151.73 51.629 150.961 50.631 149.856 50.4979C148.752 50.3648 147.748 51.13 147.614 52.2279C147.48 53.3258 148.25 54.3239 149.354 54.457ZM177.333 54.5901C177.333 56.2868 175.927 57.6842 174.221 57.6842C172.514 57.6842 171.108 56.2868 171.108 54.5901C171.108 52.8933 172.514 51.496 174.221 51.496C175.927 51.496 177.333 52.8933 177.333 54.5901ZM159.261 54.7231C159.227 56.0539 158.089 57.0853 156.784 57.0188C155.445 56.9855 154.408 55.8543 154.475 54.5235C154.508 53.1927 155.646 52.1614 156.951 52.2279C158.29 52.2944 159.327 53.3923 159.261 54.7231ZM168.063 55.4884C168.063 57.0188 166.791 58.283 165.251 58.283C163.712 58.283 162.44 57.0188 162.44 55.4884C162.44 53.9579 163.712 52.6937 165.251 52.6937C166.791 52.6937 168.063 53.9579 168.063 55.4884Z" fill="#0075E3"/>
</g>
</svg>
