<svg width="202" height="59" viewBox="0 0 202 59" fill="none" xmlns="http://www.w3.org/2000/svg">
<g id="Vector" style="mix-blend-mode:luminosity">
<path fill-rule="evenodd" clip-rule="evenodd" d="M181.115 1.75629C181.115 2.55477 181.751 3.18689 182.554 3.18689C183.357 3.18689 183.993 2.55477 183.993 1.75629C183.993 0.957812 183.357 0.325684 182.554 0.325684C181.784 0.325684 181.115 0.957812 181.115 1.75629ZM175.258 4.81712C175.994 4.81712 176.597 4.21826 176.597 3.48632C176.597 2.75438 175.994 2.15553 175.258 2.15553C174.522 2.15553 173.919 2.75438 173.919 3.48632C173.953 4.21826 174.522 4.81712 175.258 4.81712ZM169.368 5.14982C169.368 5.81521 168.799 6.3808 168.129 6.3808C167.46 6.3808 166.891 5.84848 166.891 5.14982C166.891 4.48442 167.46 3.91883 168.129 3.91883C168.799 3.91883 169.368 4.48442 169.368 5.14982ZM187.541 7.77814C188.578 7.77814 189.381 6.94639 189.381 5.94829C189.381 4.95019 188.545 4.11845 187.541 4.11845C186.537 4.11845 185.7 4.95019 185.7 5.94829C185.7 6.94639 186.503 7.77814 187.541 7.77814ZM181.182 7.17927C181.182 8.07756 180.446 8.8095 179.542 8.8095C178.638 8.8095 177.902 8.07756 177.902 7.17927C177.902 6.28099 178.638 5.54905 179.542 5.54905C180.446 5.54905 181.182 6.28099 181.182 7.17927ZM161.269 7.77814C161.838 7.77814 162.306 7.31236 162.306 6.74677C162.306 6.18118 161.838 5.7154 161.269 5.7154C160.7 5.7154 160.231 6.18118 160.231 6.74677C160.231 7.31236 160.7 7.77814 161.269 7.77814ZM12.9736 16.0956C13.7768 16.4616 14.4796 16.9939 15.0486 17.7258C15.6175 18.4578 15.9187 19.4226 15.9187 20.6203C15.9187 21.7847 15.6175 22.7828 14.9816 23.6479C14.3457 24.4796 13.5091 25.145 12.4381 25.5775C11.3671 26.01 10.1288 26.2429 8.72319 26.2429C7.25061 26.2429 5.77804 25.9768 4.33893 25.4777C2.89982 24.9454 1.66152 24.2467 0.624023 23.3484L2.69902 20.3541C3.53571 21.0528 4.43933 21.6849 5.47683 22.1174C6.68166 22.6165 7.78609 22.8827 8.79012 22.8827C9.66028 22.8827 10.3296 22.7163 10.7982 22.4169C11.2667 22.1175 11.5345 21.5186 11.5345 20.9197C11.5345 20.454 11.3671 20.0547 11.0325 19.7553C10.6978 19.4559 10.2962 19.223 9.79415 19.0233C9.29214 18.8237 8.62278 18.6241 7.71916 18.358C6.44739 18.0253 5.44336 17.6593 4.64014 17.3266C3.83691 16.9939 3.16756 16.4616 2.56514 15.7296C1.9962 15.031 1.69499 14.0661 1.69499 12.9017C1.69499 11.8038 1.9962 10.839 2.59861 10.0072C3.20103 9.17547 4.03772 8.54334 5.10869 8.11084C6.17965 7.67833 7.41795 7.44543 8.82359 7.44543C10.0954 7.44543 11.3337 7.61178 12.5385 7.97775C13.7768 8.34372 14.8478 8.84277 15.7849 9.44163L13.6429 12.5357C12.8732 12.1032 12.0365 11.7372 11.1998 11.4711C10.1288 11.1384 9.2252 10.972 8.48891 10.972C7.78609 10.972 7.21714 11.1051 6.78207 11.3713C6.34699 11.6374 6.14618 12.0034 6.14618 12.5025C6.14618 13.1346 6.44739 13.6336 7.04981 13.9663C7.65222 14.299 8.58932 14.665 9.86109 15.031C11.0994 15.3637 12.1369 15.7296 12.9736 16.0956ZM171.644 10.3066C172.447 10.3066 173.083 9.67452 173.083 8.87604C173.083 8.07756 172.447 7.44543 171.644 7.44543C170.84 7.44543 170.204 8.07756 170.204 8.87604C170.204 9.64125 170.84 10.3066 171.644 10.3066ZM60.9996 7.8114V26.0766H65.0492V18.857C65.0826 17.3599 65.5177 15.2971 68.1617 15.2971C70.4375 15.2971 70.8056 17.26 70.8056 18.1251V26.0766H74.8552V17.2601C74.8552 15.5966 74.3867 14.299 73.483 13.3342C72.5794 12.3694 71.2072 11.8703 69.6677 11.8703C66.9903 11.8703 65.8859 12.935 65.0492 13.9663V7.8114H60.9996ZM96.7096 7.8114V11.2049H86.7697V15.2971H95.3039V18.5576H86.7697V22.6498H96.7096V26.0433H82.7201V7.77814H96.7096V7.8114ZM163.477 11.1384C164.18 11.1384 164.749 10.5728 164.749 9.87414C164.749 9.17547 164.18 8.60988 163.477 8.60988C162.775 8.60988 162.206 9.17547 162.206 9.87414C162.206 10.5728 162.775 11.1384 163.477 11.1384ZM58.0879 22.5167C57.5524 22.7163 57.0504 22.8161 56.6153 22.8161C55.7452 22.8161 55.3436 22.2838 55.3436 21.1859V15.2639H59.1589V12.0034H55.3436V8.74296H51.3275V12.0034H49.3529V15.2639H51.3275V21.8513C51.3275 23.2486 51.7291 24.3133 52.5658 25.0452C53.4025 25.7771 54.4734 26.1764 55.7787 26.1764C57.9875 26.1764 59.3262 25.2781 59.8617 24.9787L58.0879 22.5167ZM132.988 22.8161C133.457 22.8161 133.926 22.7163 134.461 22.5167L136.201 25.0119C135.666 25.3114 134.327 26.2096 132.118 26.2096C130.813 26.2096 129.742 25.8437 128.905 25.0785C128.069 24.3465 127.667 23.2486 127.667 21.8846V15.2971H125.693V12.0367H127.667V8.77623H131.683V12.0367H135.532V15.2971H131.683V21.2192C131.683 22.2838 132.118 22.8161 132.988 22.8161ZM194.97 11.5709C194.97 12.935 193.833 14.0661 192.46 14.0661C191.088 14.0661 189.95 12.935 189.95 11.5709C189.95 10.2068 191.088 9.07566 192.46 9.07566C193.866 9.07566 194.97 10.1736 194.97 11.5709ZM182.989 14.6317C184.16 14.6317 185.098 13.7002 185.098 12.5357C185.098 11.3713 184.16 10.4397 182.989 10.4397C181.818 10.4397 180.881 11.3713 180.881 12.5357C180.847 13.7002 181.818 14.6317 182.989 14.6317ZM123.919 19.5889C123.45 19.0234 122.881 18.5908 122.245 18.3247C121.609 18.0253 120.773 17.7591 119.769 17.4597C118.865 17.1935 118.196 16.9606 117.794 16.761C117.393 16.5614 117.192 16.262 117.192 15.8627C117.192 15.53 117.326 15.2639 117.627 15.0975C117.928 14.9312 118.33 14.8313 118.798 14.8313C119.401 14.8313 120.07 14.9644 120.806 15.1973C121.442 15.3969 122.078 15.6631 122.714 15.9958L124.488 13.4673C123.718 12.9682 122.814 12.569 121.877 12.3028C120.907 12.0367 119.936 11.9036 118.999 11.9036C117.393 11.9036 116.054 12.2696 115.016 13.0348C113.979 13.8 113.443 14.8646 113.443 16.262C113.443 17.1602 113.678 17.8922 114.113 18.4578C114.581 19.0233 115.117 19.4559 115.753 19.722C116.389 19.9882 117.192 20.2876 118.162 20.5538C119.066 20.8199 119.735 21.0528 120.137 21.2857C120.538 21.5186 120.739 21.818 120.739 22.2173C120.739 22.5832 120.572 22.8494 120.237 23.049C119.903 23.2154 119.468 23.3152 118.932 23.3152C118.129 23.3152 117.326 23.1488 116.422 22.8494C115.686 22.5832 115.016 22.2505 114.414 21.818L112.707 24.2467C113.477 24.8789 114.414 25.3446 115.485 25.7106C116.556 26.0433 117.66 26.2096 118.832 26.2096C120.505 26.2096 121.877 25.8104 122.948 25.0452C124.019 24.28 124.555 23.1821 124.555 21.7847C124.622 20.8865 124.387 20.1545 123.919 19.5889ZM105.277 11.8703C107.151 11.8703 108.724 12.3028 109.762 13.2011C110.799 14.0994 111.234 15.3304 111.268 16.8941V26.0433H107.319V24.1136C106.85 24.7125 105.679 26.1764 102.901 26.1764C101.395 26.1764 100.224 25.8104 99.3535 24.9787C98.4833 24.1802 98.0483 23.1155 98.0483 21.818C98.0483 20.4872 98.5168 19.4559 99.4539 18.7239C100.391 17.992 101.73 17.626 103.437 17.5928H107.352V17.3266C107.352 16.5946 107.118 15.9958 106.616 15.5966C106.114 15.1973 105.344 14.9977 104.407 14.9977C103.236 14.9977 101.997 15.3304 100.692 15.9625L98.9519 13.434C100.056 12.8684 101.127 12.4692 102.098 12.203C103.035 12.0034 104.106 11.8703 105.277 11.8703ZM28.7368 12.8019C29.8747 13.4007 30.7783 14.2325 31.4142 15.2971C32.0501 16.3618 32.3513 17.626 32.3513 19.0566C32.3513 20.454 32.0501 21.7182 31.4142 22.7828C30.7783 23.8807 29.9082 24.7125 28.7368 25.3114C27.5989 25.9102 26.2602 26.2096 24.7876 26.2096C23.2816 26.2096 21.9429 25.9102 20.805 25.3114C19.6671 24.7125 18.7635 23.8807 18.1276 22.7828C17.4917 21.6849 17.1905 20.454 17.1905 19.0566C17.1905 17.626 17.5252 16.395 18.1276 15.2971C18.7635 14.2325 19.6336 13.4007 20.805 12.8019C21.9429 12.203 23.2816 11.9036 24.7876 11.9036C26.2602 11.9036 27.5989 12.203 28.7368 12.8019ZM47.713 12.0367V26.0766H43.6634V24.1469C42.8602 25.145 41.7557 26.2096 39.0448 26.2096C37.4719 26.2096 36.1332 25.7106 35.2295 24.7458C34.3259 23.7809 33.8574 22.4834 33.8574 20.8199V12.0034H37.9069V19.9549C37.9069 20.8532 38.2751 22.8161 40.5509 22.8161C43.1948 22.8161 43.6299 20.7201 43.6634 19.2562V12.0367H47.713ZM176.162 13.9663C176.162 14.9977 175.292 15.8627 174.254 15.8627C173.217 15.8627 172.346 15.031 172.346 13.9663C172.346 12.935 173.183 12.0699 174.254 12.0699C175.292 12.0699 176.162 12.935 176.162 13.9663ZM166.054 14.2325C166.054 15.0642 165.385 15.7296 164.548 15.7296C163.712 15.7296 163.042 15.0642 163.042 14.2325C163.042 13.4007 163.712 12.7353 164.548 12.7353C165.385 12.7353 166.054 13.4007 166.054 14.2325ZM27.3312 21.7847C26.6618 22.4834 25.8251 22.8161 24.7876 22.8161C23.7501 22.8161 22.88 22.4834 22.2441 21.7847C21.5748 21.0861 21.2735 20.1878 21.2735 19.0566C21.2735 17.9254 21.6082 17.0272 22.2441 16.3285C22.9135 15.6298 23.7501 15.2971 24.7876 15.2971C25.8251 15.2971 26.6618 15.6298 27.3312 16.3285C28.0005 17.0272 28.3017 17.9254 28.3017 19.0566C28.3017 20.1878 27.9671 21.0861 27.3312 21.7847ZM196.543 21.7847C198.083 21.7847 199.355 20.5205 199.355 18.9901C199.355 17.4597 198.083 16.1954 196.543 16.1954C195.004 16.1954 193.732 17.4597 193.732 18.9901C193.732 20.5205 194.97 21.7847 196.543 21.7847ZM187.507 19.5889C187.507 20.953 186.369 22.0842 184.997 22.0842C183.625 22.0842 182.487 20.953 182.487 19.5889C182.487 18.2249 183.625 17.0937 184.997 17.0937C186.369 17.0937 187.507 18.1916 187.507 19.5889ZM162.574 20.5538C163.544 20.5538 164.314 19.7886 164.314 18.8237C164.314 17.8589 163.544 17.0937 162.574 17.0937C161.603 17.0937 160.834 17.8589 160.834 18.8237C160.834 19.7886 161.603 20.5538 162.574 20.5538ZM174.221 22.55C175.459 22.55 176.463 21.5519 176.463 20.3209C176.463 19.0899 175.459 18.0918 174.221 18.0918C172.982 18.0918 171.978 19.0899 171.978 20.3209C171.978 21.5519 172.982 22.55 174.221 22.55ZM150.894 19.6555C150.894 20.2211 150.425 20.6868 149.856 20.6868C149.287 20.6868 148.819 20.2211 148.819 19.6555C148.819 19.0899 149.287 18.6241 149.856 18.6241C150.459 18.6574 150.894 19.1232 150.894 19.6555ZM158.123 22.5832C158.959 22.5832 159.629 21.9178 159.629 21.0861C159.629 20.2543 158.959 19.5889 158.123 19.5889C157.286 19.5889 156.617 20.2543 156.617 21.0861C156.617 21.9178 157.286 22.5832 158.123 22.5832ZM154.876 21.0195C154.876 21.7182 154.307 22.2838 153.605 22.2838C152.902 22.2838 152.333 21.7182 152.333 21.0195C152.333 20.3209 152.902 19.7553 153.605 19.7553C154.307 19.7553 154.876 20.3209 154.876 21.0195ZM107.319 21.1859C107.185 21.7515 106.817 22.1507 106.214 22.5167C105.612 22.8827 104.876 23.0823 104.039 23.0823C103.37 23.0823 102.801 22.9159 102.433 22.6165C102.031 22.3171 101.83 21.9844 101.83 21.4853C101.83 20.953 102.031 20.587 102.399 20.3541C102.767 20.1213 103.37 19.9882 104.139 19.9882H107.319V21.1859ZM173.317 26.6089C173.317 28.0062 172.146 29.1707 170.74 29.1707C169.334 29.1707 168.163 28.0062 168.163 26.6089C168.163 25.1783 169.334 24.0471 170.74 24.0471C172.179 24.0471 173.317 25.1783 173.317 26.6089ZM198.317 30.8342C200.024 30.8342 201.43 29.4368 201.43 27.7401C201.43 26.0433 200.024 24.646 198.317 24.646C196.61 24.646 195.205 26.0433 195.205 27.7401C195.238 29.4368 196.61 30.8342 198.317 30.8342ZM187.44 27.607C187.44 29.1374 186.168 30.4017 184.629 30.4017C183.089 30.4017 181.818 29.1374 181.818 27.607C181.818 26.0766 183.089 24.8123 184.629 24.8123C186.202 24.8123 187.44 26.0766 187.44 27.607ZM148.216 28.5718C148.886 28.5718 149.455 28.0395 149.455 27.3408C149.455 26.6754 148.919 26.1098 148.216 26.1098C147.547 26.1098 146.978 26.6422 146.978 27.3408C146.978 28.0395 147.547 28.5718 148.216 28.5718ZM152.835 30.8674C153.705 30.8674 154.408 30.1688 154.408 29.3037C154.408 28.4387 153.705 27.7401 152.835 27.7401C151.965 27.7401 151.262 28.4387 151.262 29.3037C151.262 30.1688 151.965 30.8674 152.835 30.8674ZM166.992 30.2686C166.992 31.4995 165.988 32.4976 164.749 32.4976C163.511 32.4976 162.507 31.4995 162.507 30.2686C162.507 29.0376 163.511 28.0395 164.749 28.0395C165.988 28.0395 166.992 29.0376 166.992 30.2686ZM160.198 30.568C160.198 31.5994 159.361 32.4644 158.29 32.4644C157.219 32.4644 156.382 31.6326 156.382 30.568C156.382 29.5366 157.219 28.6716 158.29 28.6716C159.327 28.7049 160.198 29.5366 160.198 30.568ZM180.379 38.1868C182.085 38.1868 183.491 36.8227 183.491 35.0927C183.491 33.3959 182.119 31.9986 180.412 31.9986C178.705 31.9986 177.3 33.3627 177.3 35.0594C177.266 36.7895 178.672 38.1868 180.379 38.1868ZM81.281 50.7961L87.1713 32.5309H83.1886L79.0052 45.4729L74.8887 32.5309H71.0399L66.823 45.3731L62.7734 32.5309H58.4561L64.3464 50.7961H68.7976L72.8806 38.4197L76.8298 50.7961H81.281ZM109.293 47.2695C108.758 47.4691 108.256 47.5689 107.821 47.5689C106.951 47.5689 106.549 47.0366 106.549 45.9387V40.0166H110.364V36.7562H106.549V33.4957H102.533V36.7562H100.558V40.0166H102.533V46.6041C102.533 48.0014 102.935 49.066 103.771 49.798C104.608 50.5632 105.679 50.9292 106.984 50.9292C109.226 50.9292 110.532 50.0309 111.067 49.7314L109.293 47.2695ZM196.811 40.4824C198.685 40.4824 200.225 38.952 200.225 37.0889C200.225 35.2258 198.685 33.6954 196.811 33.6954C194.937 33.6954 193.398 35.1925 193.398 37.0889C193.431 38.952 194.937 40.4824 196.811 40.4824ZM147.413 37.721C147.413 38.5195 146.777 39.1516 145.974 39.1516C145.171 39.1516 144.535 38.5195 144.535 37.721C144.535 36.9225 145.171 36.2904 145.974 36.2904C146.777 36.2904 147.413 36.9225 147.413 37.721ZM93.3293 36.6231C95.2035 36.6231 96.7765 37.0556 97.814 37.9539C98.8515 38.8522 99.2866 40.0832 99.32 41.6469V50.7961H95.3708V48.8664C94.9023 49.4653 93.7309 50.9292 90.9531 50.9292C89.4805 50.9292 88.2757 50.5632 87.4055 49.7314C86.5354 48.933 86.1003 47.8683 86.1003 46.5708C86.1003 45.24 86.5689 44.2086 87.506 43.4767C88.4431 42.7448 89.7818 42.3455 91.4886 42.3455H95.4043V42.0794C95.4043 41.3474 95.17 40.7486 94.668 40.3493C94.166 39.9501 93.3963 39.7505 92.4592 39.7505C91.2878 39.7505 90.0495 40.0832 88.7443 40.7153L87.0039 38.1868C88.1418 37.6212 89.1793 37.222 90.1499 36.9558C91.087 36.7562 92.158 36.6231 93.3293 36.6231ZM135.532 40.4159V36.6231C132.353 36.6231 131.415 38.0537 130.847 38.6858V36.7562H126.797V50.7961H130.847V44.0423C130.847 42.9444 131.215 42.0461 131.951 41.3807C132.687 40.7153 133.658 40.3826 134.896 40.3826C135.164 40.3826 135.365 40.3826 135.532 40.4159ZM120.639 47.4691C121.241 47.2029 121.81 46.837 122.279 46.3712L124.019 48.8997C123.383 49.4986 122.647 49.9976 121.777 50.3636C120.739 50.7961 119.601 50.9957 118.363 50.9957C116.857 50.9957 115.585 50.6963 114.447 50.0974C113.343 49.4986 112.473 48.6668 111.87 47.6022C111.268 46.5043 110.967 45.2733 110.967 43.8759C110.967 42.4453 111.268 41.2144 111.87 40.1164C112.473 39.0185 113.343 38.1868 114.447 37.5879C115.552 36.9891 116.824 36.6897 118.229 36.6897C120.505 36.6897 122.245 37.355 123.417 38.6526C124.588 39.9501 125.191 41.7799 125.191 44.1088C125.191 44.375 125.191 44.6079 125.191 44.8075H115.016C115.184 45.8389 115.719 46.6373 116.355 47.1364C116.991 47.6354 117.794 47.8683 118.698 47.8683C119.367 47.8351 120.003 47.702 120.639 47.4691ZM173.15 42.9444C174.689 42.9444 175.961 41.6801 175.961 40.1497C175.961 38.6193 174.689 37.355 173.15 37.355C171.61 37.355 170.338 38.6193 170.338 40.1497C170.338 41.6801 171.61 42.9444 173.15 42.9444ZM153.102 40.4824C153.102 41.4805 152.299 42.3123 151.295 42.3123C150.291 42.3123 149.455 41.5138 149.455 40.5157C149.455 39.5176 150.258 38.6858 151.262 38.6858C152.299 38.6526 153.102 39.4843 153.102 40.4824ZM165.318 44.6412C166.69 44.6412 167.828 43.51 167.828 42.1459C167.828 40.7818 166.69 39.6507 165.318 39.6507C163.946 39.6507 162.808 40.7818 162.808 42.1459C162.808 43.5432 163.946 44.6412 165.318 44.6412ZM116.087 40.5822C116.656 40.0499 117.393 39.7505 118.263 39.7505C119.2 39.7505 119.936 40.0166 120.505 40.5822C121.007 41.0813 121.308 41.5803 121.375 42.3455H115.016C115.217 41.6136 115.585 41.0813 116.087 40.5822ZM157.855 44.1754C159.06 44.1754 160.064 43.1773 160.064 41.9796C160.064 40.7818 159.06 39.7837 157.855 39.7837C156.617 39.7837 155.646 40.7818 155.646 41.9796C155.646 43.2105 156.617 44.1754 157.855 44.1754ZM195.238 45.7058C195.238 47.7353 193.565 49.3655 191.523 49.3655C189.482 49.3655 187.842 47.702 187.842 45.6725C187.842 43.6431 189.515 42.0128 191.557 42.0128C193.565 42.0461 195.238 43.6763 195.238 45.7058ZM95.3708 45.9387C95.237 46.5043 94.8688 46.9035 94.2664 47.2695C93.664 47.6354 92.9277 47.8351 92.091 47.8351C91.3882 47.8351 90.8527 47.702 90.4511 47.3693C90.0495 47.0699 89.8487 46.7371 89.8487 46.2381C89.8487 45.7058 90.0495 45.3398 90.4176 45.1069C90.7858 44.874 91.3882 44.741 92.158 44.741H95.3374V45.9387H95.3708ZM143.464 50.9624C144.367 50.9624 145.07 50.2305 145.07 49.3655C145.07 48.4672 144.334 47.7685 143.464 47.7685C142.594 47.7685 141.857 48.5005 141.857 49.3655C141.857 50.2638 142.594 50.9624 143.464 50.9624ZM186.671 51.3949C186.671 53.258 185.131 54.7885 183.257 54.7885C181.383 54.7885 179.843 53.258 179.843 51.3949C179.843 49.5318 181.349 48.0014 183.257 48.0014C185.131 48.0347 186.671 49.5318 186.671 51.3949ZM149.354 54.4558C150.459 54.5888 151.463 53.7904 151.596 52.7257C151.73 51.6278 150.961 50.6297 149.856 50.4967C148.752 50.3636 147.748 51.1288 147.614 52.2267C147.48 53.3246 148.25 54.3227 149.354 54.4558ZM177.333 54.5888C177.333 56.2856 175.927 57.6829 174.221 57.6829C172.514 57.6829 171.108 56.2856 171.108 54.5888C171.108 52.8921 172.514 51.4947 174.221 51.4947C175.927 51.4947 177.333 52.8921 177.333 54.5888ZM159.261 54.7219C159.227 56.0527 158.089 57.0841 156.784 57.0175C155.445 56.9843 154.408 55.8531 154.475 54.5223C154.508 53.1915 155.646 52.1601 156.951 52.2267C158.29 52.2932 159.327 53.3911 159.261 54.7219ZM168.063 55.4871C168.063 57.0175 166.791 58.2818 165.251 58.2818C163.712 58.2818 162.44 57.0175 162.44 55.4871C162.44 53.9567 163.712 52.6925 165.251 52.6925C166.791 52.6925 168.063 53.9567 168.063 55.4871Z" fill="#0075E3"/>
</g>
</svg>
