<svg width="202" height="91" viewBox="0 0 202 91" fill="none" xmlns="http://www.w3.org/2000/svg">
<g style="mix-blend-mode:luminosity">
<path fill-rule="evenodd" clip-rule="evenodd" d="M181.115 17.7575C181.115 18.556 181.751 19.1881 182.554 19.1881C183.357 19.1881 183.993 18.556 183.993 17.7575C183.993 16.959 183.357 16.3269 182.554 16.3269C181.784 16.3269 181.115 16.959 181.115 17.7575ZM175.258 20.8183C175.994 20.8183 176.597 20.2195 176.597 19.4875C176.597 18.7556 175.994 18.1567 175.258 18.1567C174.522 18.1567 173.919 18.7556 173.919 19.4875C173.953 20.2195 174.522 20.8183 175.258 20.8183ZM169.368 21.151C169.368 21.8164 168.799 22.382 168.129 22.382C167.46 22.382 166.891 21.8497 166.891 21.151C166.891 20.4856 167.46 19.9201 168.129 19.9201C168.799 19.9201 169.368 20.4856 169.368 21.151ZM187.541 23.7794C188.578 23.7794 189.381 22.9476 189.381 21.9495C189.381 20.9514 188.545 20.1197 187.541 20.1197C186.537 20.1197 185.7 20.9514 185.7 21.9495C185.7 22.9476 186.503 23.7794 187.541 23.7794ZM181.182 23.1805C181.182 24.0788 180.446 24.8107 179.542 24.8107C178.638 24.8107 177.902 24.0788 177.902 23.1805C177.902 22.2822 178.638 21.5503 179.542 21.5503C180.446 21.5503 181.182 22.2822 181.182 23.1805ZM161.269 23.7794C161.838 23.7794 162.306 23.3136 162.306 22.748C162.306 22.1824 161.838 21.7166 161.269 21.7166C160.7 21.7166 160.231 22.1824 160.231 22.748C160.231 23.3136 160.7 23.7794 161.269 23.7794ZM12.9736 32.0968C13.7768 32.4628 14.4796 32.9951 15.0486 33.727C15.6175 34.459 15.9187 35.4238 15.9187 36.6215C15.9187 37.786 15.6175 38.7841 14.9816 39.6491C14.3457 40.4808 13.5091 41.1462 12.4381 41.5787C11.3671 42.0112 10.1288 42.2441 8.72319 42.2441C7.25061 42.2441 5.77804 41.978 4.33893 41.4789C2.89982 40.9466 1.66152 40.2479 0.624023 39.3497L2.69902 36.3554C3.53571 37.054 4.43933 37.6862 5.47683 38.1187C6.68166 38.6177 7.78609 38.8839 8.79012 38.8839C9.66028 38.8839 10.3296 38.7175 10.7982 38.4181C11.2667 38.1187 11.5345 37.5198 11.5345 36.921C11.5345 36.4552 11.3671 36.0559 11.0325 35.7565C10.6978 35.4571 10.2962 35.2242 9.79415 35.0246C9.29214 34.825 8.62278 34.6253 7.71916 34.3592C6.44739 34.0265 5.44336 33.6605 4.64014 33.3278C3.83691 32.9951 3.16756 32.4628 2.56514 31.7309C1.9962 31.0322 1.69499 30.0674 1.69499 28.9029C1.69499 27.805 1.9962 26.8402 2.59861 26.0084C3.20103 25.1767 4.03772 24.5446 5.10869 24.1121C6.17965 23.6795 7.41795 23.4467 8.82359 23.4467C10.0954 23.4467 11.3337 23.613 12.5385 23.979C13.7768 24.3449 14.8478 24.844 15.7849 25.4429L13.6429 28.5369C12.8732 28.1044 12.0365 27.7385 11.1998 27.4723C10.1288 27.1396 9.2252 26.9733 8.48891 26.9733C7.78609 26.9733 7.21714 27.1063 6.78207 27.3725C6.34699 27.6387 6.14618 28.0046 6.14618 28.5037C6.14618 29.1358 6.44739 29.6348 7.04981 29.9675C7.65222 30.3002 8.58932 30.6662 9.86109 31.0322C11.0994 31.3649 12.1369 31.7309 12.9736 32.0968ZM171.644 26.3079C172.447 26.3079 173.083 25.6757 173.083 24.8773C173.083 24.0788 172.447 23.4467 171.644 23.4467C170.84 23.4467 170.204 24.0788 170.204 24.8773C170.204 25.6425 170.84 26.3079 171.644 26.3079ZM60.9996 23.8126V42.0778H65.0492V34.8582C65.0826 33.3611 65.5177 31.2983 68.1617 31.2983C70.4375 31.2983 70.8056 33.2613 70.8056 34.1263V42.0778H74.8552V33.2613C74.8552 31.5978 74.3867 30.3002 73.483 29.3354C72.5794 28.3706 71.2072 27.8715 69.6677 27.8715C66.9903 27.8715 65.8859 28.9362 65.0492 29.9675V23.8126H60.9996ZM96.7096 23.8126V27.2062H86.7697V31.2983H95.3039V34.5588H86.7697V38.651H96.7096V42.0445H82.7201V23.7794H96.7096V23.8126ZM163.477 27.1396C164.18 27.1396 164.749 26.574 164.749 25.8754C164.749 25.1767 164.18 24.6111 163.477 24.6111C162.775 24.6111 162.206 25.1767 162.206 25.8754C162.206 26.574 162.775 27.1396 163.477 27.1396ZM58.0879 38.5179C57.5524 38.7175 57.0504 38.8173 56.6153 38.8173C55.7452 38.8173 55.3436 38.285 55.3436 37.1871V31.2651H59.1589V28.0046H55.3436V24.7442H51.3275V28.0046H49.3529V31.2651H51.3275V37.8525C51.3275 39.2498 51.7291 40.3145 52.5658 41.0464C53.4025 41.7784 54.4734 42.1776 55.7787 42.1776C57.9875 42.1776 59.3262 41.2793 59.8617 40.9799L58.0879 38.5179ZM132.988 38.8173C133.457 38.8173 133.926 38.7175 134.461 38.5179L136.201 41.0131C135.666 41.3126 134.327 42.2109 132.118 42.2109C130.813 42.2109 129.742 41.8449 128.905 41.0797C128.069 40.3478 127.667 39.2498 127.667 37.8858V31.2983H125.693V28.0379H127.667V24.7775H131.683V28.0379H135.532V31.2983H131.683V37.2204C131.683 38.285 132.118 38.8173 132.988 38.8173ZM194.97 27.5721C194.97 28.9362 193.833 30.0674 192.46 30.0674C191.088 30.0674 189.95 28.9362 189.95 27.5721C189.95 26.2081 191.088 25.0769 192.46 25.0769C193.866 25.0769 194.97 26.1748 194.97 27.5721ZM182.989 30.6329C184.16 30.6329 185.098 29.7014 185.098 28.5369C185.098 27.3725 184.16 26.4409 182.989 26.4409C181.818 26.4409 180.881 27.3725 180.881 28.5369C180.847 29.7014 181.818 30.6329 182.989 30.6329ZM123.919 35.5902C123.45 35.0246 122.881 34.5921 122.245 34.3259C121.609 34.0265 120.773 33.7603 119.769 33.4609C118.865 33.1947 118.196 32.9618 117.794 32.7622C117.393 32.5626 117.192 32.2632 117.192 31.8639C117.192 31.5312 117.326 31.2651 117.627 31.0987C117.928 30.9324 118.33 30.8326 118.798 30.8326C119.401 30.8326 120.07 30.9656 120.806 31.1985C121.442 31.3982 122.078 31.6643 122.714 31.997L124.488 29.4685C123.718 28.9695 122.814 28.5702 121.877 28.3041C120.907 28.0379 119.936 27.9048 118.999 27.9048C117.393 27.9048 116.054 28.2708 115.016 29.036C113.979 29.8012 113.443 30.8658 113.443 32.2632C113.443 33.1615 113.678 33.8934 114.113 34.459C114.581 35.0246 115.117 35.4571 115.753 35.7232C116.389 35.9894 117.192 36.2888 118.162 36.555C119.066 36.8211 119.735 37.054 120.137 37.2869C120.538 37.5198 120.739 37.8192 120.739 38.2185C120.739 38.5844 120.572 38.8506 120.237 39.0502C119.903 39.2166 119.468 39.3164 118.932 39.3164C118.129 39.3164 117.326 39.15 116.422 38.8506C115.686 38.5844 115.016 38.2517 114.414 37.8192L112.707 40.2479C113.477 40.8801 114.414 41.3458 115.485 41.7118C116.556 42.0445 117.66 42.2109 118.832 42.2109C120.505 42.2109 121.877 41.8116 122.948 41.0464C124.019 40.2812 124.555 39.1833 124.555 37.786C124.622 36.8877 124.387 36.1558 123.919 35.5902ZM105.277 27.8715C107.151 27.8715 108.724 28.3041 109.762 29.2023C110.799 30.1006 111.234 31.3316 111.268 32.8953V42.0445H107.319V40.1149C106.85 40.7137 105.679 42.1776 102.901 42.1776C101.395 42.1776 100.224 41.8116 99.3535 40.9799C98.4833 40.1814 98.0483 39.1168 98.0483 37.8192C98.0483 36.4884 98.5168 35.4571 99.4539 34.7251C100.391 33.9932 101.73 33.6272 103.437 33.594H107.352V33.3278C107.352 32.5959 107.118 31.997 106.616 31.5978C106.114 31.1985 105.344 30.9989 104.407 30.9989C103.236 30.9989 101.997 31.3316 100.692 31.9637L98.9519 29.4352C100.056 28.8696 101.127 28.4704 102.098 28.2042C103.035 28.0046 104.106 27.8715 105.277 27.8715ZM28.7368 28.8031C29.8747 29.402 30.7783 30.2337 31.4142 31.2983C32.0501 32.363 32.3513 33.6272 32.3513 35.0578C32.3513 36.4552 32.0501 37.7194 31.4142 38.7841C30.7783 39.882 29.9082 40.7137 28.7368 41.3126C27.5989 41.9114 26.2602 42.2109 24.7876 42.2109C23.2816 42.2109 21.9429 41.9114 20.805 41.3126C19.6671 40.7137 18.7635 39.882 18.1276 38.7841C17.4917 37.6862 17.1905 36.4552 17.1905 35.0578C17.1905 33.6272 17.5252 32.3962 18.1276 31.2983C18.7635 30.2337 19.6336 29.402 20.805 28.8031C21.9429 28.2042 23.2816 27.9048 24.7876 27.9048C26.2602 27.9048 27.5989 28.2042 28.7368 28.8031ZM47.713 28.0379V42.0778H43.6634V40.1481C42.8602 41.1462 41.7557 42.2109 39.0448 42.2109C37.4719 42.2109 36.1332 41.7118 35.2295 40.747C34.3259 39.7822 33.8574 38.4846 33.8574 36.8211V28.0046H37.9069V35.9561C37.9069 36.8544 38.2751 38.8173 40.5509 38.8173C43.1948 38.8173 43.6299 36.7213 43.6634 35.2575V28.0379H47.713ZM176.162 29.9675C176.162 30.9989 175.292 31.8639 174.254 31.8639C173.217 31.8639 172.346 31.0322 172.346 29.9675C172.346 28.9362 173.183 28.0712 174.254 28.0712C175.292 28.0712 176.162 28.9362 176.162 29.9675ZM166.054 30.2337C166.054 31.0655 165.385 31.7309 164.548 31.7309C163.712 31.7309 163.042 31.0655 163.042 30.2337C163.042 29.402 163.712 28.7366 164.548 28.7366C165.385 28.7366 166.054 29.402 166.054 30.2337ZM27.3312 37.786C26.6618 38.4846 25.8251 38.8173 24.7876 38.8173C23.7501 38.8173 22.88 38.4846 22.2441 37.786C21.5748 37.0873 21.2735 36.189 21.2735 35.0578C21.2735 33.9267 21.6082 33.0284 22.2441 32.3297C22.9135 31.631 23.7501 31.2983 24.7876 31.2983C25.8251 31.2983 26.6618 31.631 27.3312 32.3297C28.0005 33.0284 28.3017 33.9267 28.3017 35.0578C28.3017 36.189 27.9671 37.0873 27.3312 37.786ZM196.543 37.786C198.083 37.786 199.355 36.5217 199.355 34.9913C199.355 33.4609 198.083 32.1966 196.543 32.1966C195.004 32.1966 193.732 33.4609 193.732 34.9913C193.732 36.5217 194.97 37.786 196.543 37.786ZM187.507 35.5902C187.507 36.9542 186.369 38.0854 184.997 38.0854C183.625 38.0854 182.487 36.9542 182.487 35.5902C182.487 34.2261 183.625 33.0949 184.997 33.0949C186.369 33.0949 187.507 34.1928 187.507 35.5902ZM162.574 36.555C163.544 36.555 164.314 35.7898 164.314 34.8249C164.314 33.8601 163.544 33.0949 162.574 33.0949C161.603 33.0949 160.834 33.8601 160.834 34.8249C160.834 35.7898 161.603 36.555 162.574 36.555ZM174.221 38.5512C175.459 38.5512 176.463 37.5531 176.463 36.3221C176.463 35.0911 175.459 34.093 174.221 34.093C172.982 34.093 171.978 35.0911 171.978 36.3221C171.978 37.5531 172.982 38.5512 174.221 38.5512ZM150.894 35.6567C150.894 36.2223 150.425 36.6881 149.856 36.6881C149.287 36.6881 148.819 36.2223 148.819 35.6567C148.819 35.0911 149.287 34.6253 149.856 34.6253C150.459 34.6586 150.894 35.1244 150.894 35.6567ZM158.123 38.5845C158.959 38.5845 159.629 37.9191 159.629 37.0873C159.629 36.2556 158.959 35.5902 158.123 35.5902C157.286 35.5902 156.617 36.2556 156.617 37.0873C156.617 37.9191 157.286 38.5845 158.123 38.5845ZM154.876 37.0208C154.876 37.7194 154.307 38.285 153.605 38.285C152.902 38.285 152.333 37.7194 152.333 37.0208C152.333 36.3221 152.902 35.7565 153.605 35.7565C154.307 35.7565 154.876 36.3221 154.876 37.0208ZM107.319 37.1871C107.185 37.7527 106.817 38.1519 106.214 38.5179C105.612 38.8839 104.876 39.0835 104.039 39.0835C103.37 39.0835 102.801 38.9171 102.433 38.6177C102.031 38.3183 101.83 37.9856 101.83 37.4865C101.83 36.9542 102.031 36.5883 102.399 36.3554C102.767 36.1225 103.37 35.9894 104.139 35.9894H107.319V37.1871ZM173.317 42.6101C173.317 44.0074 172.146 45.1719 170.74 45.1719C169.334 45.1719 168.163 44.0074 168.163 42.6101C168.163 41.1795 169.334 40.0483 170.74 40.0483C172.179 40.0483 173.317 41.1795 173.317 42.6101ZM198.317 46.8354C200.024 46.8354 201.43 45.438 201.43 43.7413C201.43 42.0445 200.024 40.6472 198.317 40.6472C196.61 40.6472 195.205 42.0445 195.205 43.7413C195.238 45.438 196.61 46.8354 198.317 46.8354ZM187.44 43.6082C187.44 45.1386 186.168 46.4029 184.629 46.4029C183.089 46.4029 181.818 45.1386 181.818 43.6082C181.818 42.0778 183.089 40.8135 184.629 40.8135C186.202 40.8135 187.44 42.0778 187.44 43.6082ZM148.216 44.573C148.886 44.573 149.455 44.0407 149.455 43.342C149.455 42.6766 148.919 42.111 148.216 42.111C147.547 42.111 146.978 42.6434 146.978 43.342C146.978 44.0407 147.547 44.573 148.216 44.573ZM152.835 46.8686C153.705 46.8686 154.408 46.17 154.408 45.305C154.408 44.4399 153.705 43.7413 152.835 43.7413C151.965 43.7413 151.262 44.4399 151.262 45.305C151.262 46.17 151.965 46.8686 152.835 46.8686ZM166.992 46.2698C166.992 47.5008 165.988 48.4989 164.749 48.4989C163.511 48.4989 162.507 47.5008 162.507 46.2698C162.507 45.0388 163.511 44.0407 164.749 44.0407C165.988 44.0407 166.992 45.0388 166.992 46.2698ZM160.198 46.5692C160.198 47.6006 159.361 48.4656 158.29 48.4656C157.219 48.4656 156.382 47.6339 156.382 46.5692C156.382 45.5379 157.219 44.6728 158.29 44.6728C159.327 44.7061 160.198 45.5379 160.198 46.5692ZM180.379 54.188C182.085 54.188 183.491 52.8239 183.491 51.0939C183.491 49.3972 182.119 47.9998 180.412 47.9998C178.705 47.9998 177.3 49.3639 177.3 51.0607C177.266 52.7907 178.672 54.188 180.379 54.188ZM81.281 66.7973L87.1713 48.5321H83.1886L79.0052 61.4741L74.8887 48.5321H71.0399L66.823 61.3743L62.7734 48.5321H58.4561L64.3464 66.7973H68.7976L72.8806 54.4209L76.8298 66.7973H81.281ZM109.293 63.2707C108.758 63.4703 108.256 63.5701 107.821 63.5701C106.951 63.5701 106.549 63.0378 106.549 61.9399V56.0179H110.364V52.7574H106.549V49.497H102.533V52.7574H100.558V56.0179H102.533V62.6053C102.533 64.0026 102.935 65.0673 103.771 65.7992C104.608 66.5644 105.679 66.9304 106.984 66.9304C109.226 66.9304 110.532 66.0321 111.067 65.7327L109.293 63.2707ZM196.811 56.4836C198.685 56.4836 200.225 54.9532 200.225 53.0901C200.225 51.227 198.685 49.6966 196.811 49.6966C194.937 49.6966 193.398 51.1937 193.398 53.0901C193.431 54.9532 194.937 56.4836 196.811 56.4836ZM147.413 53.7222C147.413 54.5207 146.777 55.1528 145.974 55.1528C145.171 55.1528 144.535 54.5207 144.535 53.7222C144.535 52.9238 145.171 52.2916 145.974 52.2916C146.777 52.2916 147.413 52.9238 147.413 53.7222ZM93.3293 52.6243C95.2035 52.6243 96.7765 53.0568 97.814 53.9551C98.8515 54.8534 99.2866 56.0844 99.32 57.6481V66.7973H95.3708V64.8677C94.9023 65.4665 93.7309 66.9304 90.9531 66.9304C89.4805 66.9304 88.2757 66.5644 87.4055 65.7327C86.5354 64.9342 86.1003 63.8695 86.1003 62.572C86.1003 61.2412 86.5689 60.2099 87.506 59.4779C88.4431 58.746 89.7818 58.3468 91.4886 58.3468H95.4043V58.0806C95.4043 57.3486 95.17 56.7498 94.668 56.3506C94.166 55.9513 93.3963 55.7517 92.4592 55.7517C91.2878 55.7517 90.0495 56.0844 88.7443 56.7165L87.0039 54.188C88.1418 53.6224 89.1793 53.2232 90.1499 52.957C91.087 52.7574 92.158 52.6243 93.3293 52.6243ZM135.532 56.4171V52.6243C132.353 52.6243 131.415 54.0549 130.847 54.6871V52.7574H126.797V66.7973H130.847V60.0435C130.847 58.9456 131.215 58.0473 131.951 57.3819C132.687 56.7165 133.658 56.3838 134.896 56.3838C135.164 56.3838 135.365 56.3838 135.532 56.4171ZM120.639 63.4703C121.241 63.2042 121.81 62.8382 122.279 62.3724L124.019 64.9009C123.383 65.4998 122.647 65.9988 121.777 66.3648C120.739 66.7973 119.601 66.9969 118.363 66.9969C116.857 66.9969 115.585 66.6975 114.447 66.0986C113.343 65.4998 112.473 64.668 111.87 63.6034C111.268 62.5055 110.967 61.2745 110.967 59.8772C110.967 58.4466 111.268 57.2156 111.87 56.1177C112.473 55.0198 113.343 54.188 114.447 53.5892C115.552 52.9903 116.824 52.6909 118.229 52.6909C120.505 52.6909 122.245 53.3563 123.417 54.6538C124.588 55.9513 125.191 57.7812 125.191 60.1101C125.191 60.3762 125.191 60.6091 125.191 60.8087H115.016C115.184 61.8401 115.719 62.6386 116.355 63.1376C116.991 63.6367 117.794 63.8696 118.698 63.8696C119.367 63.8363 120.003 63.7032 120.639 63.4703ZM173.15 58.9456C174.689 58.9456 175.961 57.6814 175.961 56.1509C175.961 54.6205 174.689 53.3563 173.15 53.3563C171.61 53.3563 170.338 54.6205 170.338 56.1509C170.338 57.6814 171.61 58.9456 173.15 58.9456ZM153.102 56.4836C153.102 57.4817 152.299 58.3135 151.295 58.3135C150.291 58.3135 149.455 57.515 149.455 56.5169C149.455 55.5188 150.258 54.6871 151.262 54.6871C152.299 54.6538 153.102 55.4855 153.102 56.4836ZM165.318 60.6424C166.69 60.6424 167.828 59.5112 167.828 58.1471C167.828 56.7831 166.69 55.6519 165.318 55.6519C163.946 55.6519 162.808 56.7831 162.808 58.1471C162.808 59.5445 163.946 60.6424 165.318 60.6424ZM116.087 56.5834C116.656 56.0511 117.393 55.7517 118.263 55.7517C119.2 55.7517 119.936 56.0179 120.505 56.5834C121.007 57.0825 121.308 57.5815 121.375 58.3468H115.016C115.217 57.6148 115.585 57.0825 116.087 56.5834ZM157.855 60.1766C159.06 60.1766 160.064 59.1785 160.064 57.9808C160.064 56.7831 159.06 55.785 157.855 55.785C156.617 55.785 155.646 56.7831 155.646 57.9808C155.646 59.2118 156.617 60.1766 157.855 60.1766ZM195.238 61.707C195.238 63.7365 193.565 65.3667 191.523 65.3667C189.482 65.3667 187.842 63.7032 187.842 61.6737C187.842 59.6443 189.515 58.0141 191.557 58.0141C193.565 58.0473 195.238 59.6775 195.238 61.707ZM95.3708 61.9399C95.237 62.5055 94.8688 62.9047 94.2664 63.2707C93.664 63.6367 92.9277 63.8363 92.091 63.8363C91.3882 63.8363 90.8527 63.7032 90.4511 63.3705C90.0495 63.0711 89.8487 62.7384 89.8487 62.2393C89.8487 61.707 90.0495 61.341 90.4176 61.1081C90.7858 60.8753 91.3882 60.7422 92.158 60.7422H95.3374V61.9399H95.3708ZM143.464 66.9636C144.367 66.9636 145.07 66.2317 145.07 65.3667C145.07 64.4684 144.334 63.7697 143.464 63.7697C142.594 63.7697 141.857 64.5017 141.857 65.3667C141.857 66.265 142.594 66.9636 143.464 66.9636ZM186.671 67.3962C186.671 69.2593 185.131 70.7897 183.257 70.7897C181.383 70.7897 179.843 69.2593 179.843 67.3962C179.843 65.533 181.349 64.0026 183.257 64.0026C185.131 64.0359 186.671 65.533 186.671 67.3962ZM149.354 70.457C150.459 70.5901 151.463 69.7916 151.596 68.7269C151.73 67.629 150.961 66.631 149.856 66.4979C148.752 66.3648 147.748 67.13 147.614 68.2279C147.48 69.3258 148.25 70.3239 149.354 70.457ZM177.333 70.5901C177.333 72.2868 175.927 73.6842 174.221 73.6842C172.514 73.6842 171.108 72.2868 171.108 70.5901C171.108 68.8933 172.514 67.496 174.221 67.496C175.927 67.496 177.333 68.8933 177.333 70.5901ZM159.261 70.7231C159.227 72.0539 158.089 73.0853 156.784 73.0188C155.445 72.9855 154.408 71.8543 154.475 70.5235C154.508 69.1927 155.646 68.1614 156.951 68.2279C158.29 68.2944 159.327 69.3923 159.261 70.7231ZM168.063 71.4884C168.063 73.0188 166.791 74.283 165.251 74.283C163.712 74.283 162.44 73.0188 162.44 71.4884C162.44 69.9579 163.712 68.6937 165.251 68.6937C166.791 68.6937 168.063 69.9579 168.063 71.4884Z" fill="#0075E3"/>
</g>
</svg>
